<?xml version="1.0" encoding="utf-8"?>
<!-- Generator: Adobe Illustrator 28.1.0, SVG Export Plug-In . SVG Version: 6.00 Build 0)  -->
<svg version="1.1" id="Layer_1" xmlns="http://www.w3.org/2000/svg" xmlns:xlink="http://www.w3.org/1999/xlink" x="0px" y="0px"
	 viewBox="0 0 850.4 198.4" style="enable-background:new 0 0 850.4 198.4;" xml:space="preserve">
<style type="text/css">
	.st0{fill:#A20C33;}
	.st1{fill:#A6A8AB;}
	.st2{fill:#FFFFFF;}
</style>
<path class="st0" d="M65.8,132.7l30.9-2.8c1.3,3.7,3,6.3,5.3,7.8c2.3,1.6,5.3,2.4,9.2,2.4c4.2,0,7.4-0.9,9.7-2.7
	c1.8-1.3,2.7-3,2.7-5c0-2.2-1.2-4-3.6-5.2c-1.7-0.9-6.2-1.9-13.4-3.2c-10.8-1.9-18.3-3.6-22.5-5.3c-4.2-1.6-7.7-4.3-10.6-8.1
	c-2.9-3.8-4.3-8.2-4.3-13.1c0-5.4,1.5-10,4.7-13.8c3.1-3.9,7.4-6.8,12.8-8.7c5.5-1.9,12.8-2.9,21.9-2.9c9.7,0,16.8,0.7,21.4,2.2
	c4.6,1.5,8.5,3.8,11.5,6.8c3.1,3.1,5.6,7.3,7.7,12.6l-29.7,3.1c-0.8-2.7-2-4.6-3.8-5.9c-2.4-1.7-5.3-2.5-8.8-2.5
	c-3.5,0-6,0.6-7.6,1.9C97.8,91.7,97,93.2,97,95c0,2,1,3.5,3.1,4.5c2,1,6.5,2,13.3,2.8c10.3,1.2,18,2.8,23.1,4.9
	c5,2.1,8.9,5.1,11.6,9c2.7,3.9,4,8.1,4,12.8c0,4.7-1.4,9.3-4.2,13.7c-2.8,4.4-7.3,8-13.4,10.6c-6.1,2.6-14.4,3.9-24.9,3.9
	c-14.8,0-25.4-2.1-31.6-6.3C71.6,146.6,67.5,140.5,65.8,132.7L65.8,132.7z"/>
<path class="st0" d="M170,147.2c8.1,6.6,18.6,9.9,31.7,9.9c14.6,0,26.1-4,34.4-12c8.3-8,12.4-18.2,12.4-30.7
	c0-11.1-3.3-20.5-10-28.1c-8.3-9.4-20.6-14.2-36.9-14.2c-14.2,0-25.5,4-33.9,12.1c-8.4,8-12.5,18.3-12.5,30.7
	C155.2,128.2,160.1,139,170,147.2 M190.8,98.5c3-3.5,6.7-5.3,11.3-5.3c4.3,0,7.9,1.7,10.8,5.2c2.9,3.5,4.4,8.8,4.4,15.9
	c0,7.6-1.4,13.2-4.3,16.6c-2.9,3.4-6.6,5.2-11.1,5.2c-4.5,0-8.1-1.8-11.1-5.3c-2.9-3.5-4.4-8.9-4.4-16.3
	C186.4,107.4,187.9,102,190.8,98.5L190.8,98.5z"/>
<path class="st0" d="M290.5,74h14.8v22.9h-14.8v58.4h-31.2V96.9h-11.7V74h11.7v-3.7c0-3.3,0.4-7,1.1-10.9c0.7-4,2.1-7.2,4-9.7
	c2-2.5,4.7-4.6,8.3-6.1c3.6-1.6,8.8-2.3,15.6-2.3c5.5,0,13.4,0.6,23.8,1.9L308.6,62c-3.7-0.6-6.8-0.9-9-0.9c-2.8,0-4.8,0.5-6.1,1.4
	c-1.2,0.9-2.1,2.4-2.6,4.5C290.6,68.1,290.5,70.4,290.5,74L290.5,74z"/>
<path class="st0" d="M346.4,96.9v28.8c0,3.5,0.3,5.8,1,6.9c1,1.7,2.8,2.6,5.3,2.6c2.3,0,5.5-0.7,9.6-2l2.3,21.4
	c-7.7,1.7-14.9,2.5-21.5,2.5c-7.7,0-13.5-1-17.1-3c-3.7-2-6.4-5-8.1-9.1c-1.8-4-2.6-10.6-2.6-19.7V96.9h-11.4V74h11.4V59.1l31.2-16
	V74V96.9L346.4,96.9z"/>
<polygon class="st1" points="371.6,43.1 402.8,43.1 402.8,155.3 371.6,155.3 371.6,43.1 "/>
<polygon class="st1" points="415.9,155.3 447.2,155.3 447.2,74 415.9,74 415.9,155.3 "/>
<polygon class="st1" points="415.9,43.1 415.9,64.5 447.2,64.5 447.2,43.1 415.9,43.1 "/>
<path class="st1" d="M459,74h29.1v13.2c4.3-5.4,8.7-9.3,13.1-11.6c4.4-2.3,9.8-3.5,16.2-3.5c8.6,0,15.3,2.6,20.2,7.7
	c4.9,5.1,7.3,13.1,7.3,23.8v51.7h-31.2v-44.7c0-5.1-1-8.7-2.8-10.8c-1.9-2.1-4.5-3.2-8-3.2c-3.8,0-6.8,1.4-9.2,4.3
	c-2.3,2.9-3.5,8-3.5,15.4v39H459V74L459,74z"/>
<path class="st1" d="M645.9,119c0-10.7-1.8-19.5-5.3-26.2c-3.5-6.7-8.6-11.8-15.3-15.4c-6.7-3.5-15.9-5.3-27.5-5.3
	c-14.3,0-25.5,3.9-33.6,11.8c-8.1,7.9-12.2,18.1-12.2,30.9c0,8.9,2,16.7,6.1,23.3c4,6.6,9.1,11.4,15.3,14.5c6.1,3,14.6,4.6,25.3,4.6
	c12.4,0,21.8-1.8,28.5-5.3c6.6-3.5,12.3-9.4,16.9-17.6l-30.6-2.8c-1.9,2.4-3.7,4.2-5.4,5.1c-2.7,1.5-5.6,2.3-8.6,2.3
	c-4.8,0-8.7-1.8-11.7-5.3c-2.1-2.4-3.5-6.1-4-11.1h62.1V119L645.9,119z M583.9,107.7c0.5-4.9,1.7-8.6,3.6-11c2.9-4,6.9-5.9,11.8-5.9
	c4.2,0,7.7,1.3,10.3,3.9c2.6,2.6,4.2,7,4.8,13.1H583.9L583.9,107.7z"/>
<path class="st1" d="M208.8,54c35.6,3.8,49.8,6.9,82.9,15.8c27.6,7.5,71.6,4.2,71.6,4.2s0,14.1,0,22.9c-17.2,2.4-54.6,1.5-85.7-9.8
	c-55.6-20.3-80.8-24.4-110.6-26.5c-40.3-2.9-88.3,3.2-88.3,3.2l-0.5-4C78.3,59.8,147.8,47.5,208.8,54L208.8,54z"/>
<path class="st1" d="M645.4,58.2h1.5c2.2,0,2.4-1.1,2.4-1.7c0-1.5-2.1-1.5-2.4-1.5h-1.5V58.2L645.4,58.2z M648.1,52.3
	c3.2,0,4.8,1.7,4.8,3.9c0,2-1.4,3-2.8,3.3v0c0.9,0.2,1.4,1.2,1.5,1.5l2.3,5.5h-3.8l-1.8-4.5c-0.1-0.2-0.6-1.1-1.8-1.1h-1.1v5.7h-3.5
	V52.3H648.1L648.1,52.3z M647.1,70.1c5.9,0,10.8-4.8,10.8-10.8c0-5.9-4.8-10.8-10.8-10.8c-5.9,0-10.8,4.8-10.8,10.8
	C636.4,65.3,641.2,70.1,647.1,70.1 M647.1,45.4c7.7,0,14,6.2,14,14c0,7.7-6.2,14-14,14c-7.7,0-14-6.2-14-14
	C633.2,51.6,639.4,45.4,647.1,45.4L647.1,45.4z"/>
<g>
	<rect x="699.9" y="117.1" class="st1" width="40.1" height="40.1"/>
	<rect x="744.5" y="117.1" class="st1" width="40.1" height="40.1"/>
	<rect x="699.9" y="72.4" class="st0" width="40.1" height="40.1"/>
	<rect x="744.5" y="72.4" class="st1" width="40.1" height="40.1"/>
	<g>
		<g>
			<path class="st2" d="M715,128.3v8.2h11.8v2.9H715v9.5h-3.4v-23.5h16.6v2.9H715z"/>
		</g>
	</g>
	<g>
		<g>
			<path class="st2" d="M756.5,125.3h3.4v20.6h12.7v2.9h-16.1V125.3z"/>
		</g>
	</g>
	<g>
		<g>
			<path class="st2" d="M710.9,101.5l1.2-2.6c1.7,1.6,4.7,2.7,7.8,2.7c4.1,0,5.8-1.6,5.8-3.6c0-5.7-14.2-2.1-14.2-10.9
				c0-3.6,2.8-6.7,9-6.7c2.8,0,5.6,0.7,7.6,2.1l-1.1,2.7c-2-1.3-4.4-1.9-6.4-1.9c-4,0-5.7,1.7-5.7,3.7c0,5.7,14.2,2.1,14.2,10.8
				c0,3.6-2.9,6.7-9.1,6.7C716.3,104.4,712.7,103.2,710.9,101.5z"/>
		</g>
	</g>
	<g>
		<g>
			<path class="st2" d="M752.6,92.4c0-6.9,5.1-12,12-12c6.9,0,11.9,5.1,11.9,12c0,6.9-5.1,12-11.9,12
				C757.7,104.4,752.6,99.3,752.6,92.4z M773.3,92.4c0-5.2-3.7-9-8.7-9c-5.1,0-8.8,3.8-8.8,9c0,5.2,3.7,9,8.8,9
				C769.6,101.5,773.3,97.6,773.3,92.4z"/>
		</g>
	</g>
</g>
</svg>
