<svg width="58" height="26" viewBox="0 0 58 26" fill="none" xmlns="http://www.w3.org/2000/svg">
<circle cx="29" cy="4" r="4" fill="#444444"/>
<path d="M7.04144 11.996H11.6014V13.16H8.37344V15.02H9.76544C10.5174 15.02 11.0974 15.26 11.5054 15.74C11.9214 16.212 12.1294 16.8 12.1294 17.504C12.1294 18.216 11.9214 18.812 11.5054 19.292C11.0974 19.764 10.5174 20 9.76544 20H7.04144V11.996ZM9.60944 16.184H8.37344V18.824H9.60944C9.96144 18.824 10.2414 18.704 10.4494 18.464C10.6654 18.224 10.7734 17.904 10.7734 17.504C10.7734 17.112 10.6654 16.796 10.4494 16.556C10.2414 16.308 9.96144 16.184 9.60944 16.184ZM15.4498 20.144C14.6578 20.144 14.0258 19.864 13.5538 19.304C13.0818 18.744 12.8458 18.008 12.8458 17.096C12.8458 16.232 13.0698 15.512 13.5178 14.936C13.9738 14.352 14.5778 14.06 15.3298 14.06C16.0898 14.06 16.6818 14.348 17.1058 14.924C17.5298 15.5 17.7418 16.24 17.7418 17.144V17.492H14.0578C14.0818 17.988 14.2258 18.392 14.4898 18.704C14.7538 19.008 15.1138 19.16 15.5698 19.16C16.0898 19.16 16.5258 18.952 16.8778 18.536L17.4538 19.256C16.9338 19.848 16.2658 20.144 15.4498 20.144ZM16.5778 16.64C16.5698 16.216 16.4618 15.844 16.2538 15.524C16.0538 15.196 15.7418 15.032 15.3178 15.032C14.9098 15.032 14.6018 15.196 14.3938 15.524C14.1858 15.852 14.0698 16.224 14.0458 16.64H16.5778ZM18.3254 20.144V19.124C18.5734 19.124 18.7654 18.992 18.9014 18.728C19.0454 18.464 19.1494 17.968 19.2134 17.24L19.4774 14.204H23.2214V20H22.0334V15.248H20.5694L20.4134 17.336C20.3334 18.36 20.1214 19.084 19.7774 19.508C19.4334 19.932 18.9494 20.144 18.3254 20.144ZM28.2416 14.204V15.248H25.8416V20H24.6416V14.204H28.2416ZM33.221 19.268C32.781 19.852 32.169 20.144 31.385 20.144C30.601 20.144 29.985 19.852 29.537 19.268C29.097 18.684 28.877 17.96 28.877 17.096C28.877 16.232 29.097 15.512 29.537 14.936C29.977 14.352 30.593 14.06 31.385 14.06C32.177 14.06 32.793 14.352 33.233 14.936C33.673 15.512 33.893 16.232 33.893 17.096C33.893 17.96 33.669 18.684 33.221 19.268ZM30.437 18.512C30.653 18.896 30.969 19.088 31.385 19.088C31.801 19.088 32.117 18.896 32.333 18.512C32.549 18.128 32.657 17.656 32.657 17.096C32.657 16.536 32.549 16.068 32.333 15.692C32.117 15.308 31.801 15.116 31.385 15.116C30.969 15.116 30.653 15.308 30.437 15.692C30.221 16.068 30.113 16.536 30.113 17.096C30.113 17.656 30.221 18.128 30.437 18.512ZM39.2484 19.316C38.8724 19.868 38.3604 20.144 37.7124 20.144C37.0644 20.144 36.5684 19.836 36.2244 19.22V22.208H35.0244V14.204H36.2244V14.972C36.3924 14.684 36.6084 14.46 36.8724 14.3C37.1364 14.14 37.4164 14.06 37.7124 14.06C38.3684 14.06 38.8844 14.332 39.2604 14.876C39.6364 15.42 39.8244 16.16 39.8244 17.096C39.8244 18.024 39.6324 18.764 39.2484 19.316ZM37.3524 19.088C37.7524 19.088 38.0564 18.904 38.2644 18.536C38.4804 18.16 38.5884 17.68 38.5884 17.096C38.5884 16.512 38.4804 16.036 38.2644 15.668C38.0564 15.3 37.7524 15.116 37.3524 15.116C37.1284 15.116 36.9084 15.192 36.6924 15.344C36.4844 15.496 36.3284 15.684 36.2244 15.908V18.284C36.3284 18.508 36.4844 18.7 36.6924 18.86C36.9084 19.012 37.1284 19.088 37.3524 19.088ZM44.9867 19.268C44.5467 19.852 43.9347 20.144 43.1507 20.144C42.3667 20.144 41.7507 19.852 41.3027 19.268C40.8627 18.684 40.6427 17.96 40.6427 17.096C40.6427 16.232 40.8627 15.512 41.3027 14.936C41.7427 14.352 42.3587 14.06 43.1507 14.06C43.9427 14.06 44.5587 14.352 44.9987 14.936C45.4387 15.512 45.6587 16.232 45.6587 17.096C45.6587 17.96 45.4347 18.684 44.9867 19.268ZM42.2027 18.512C42.4187 18.896 42.7347 19.088 43.1507 19.088C43.5667 19.088 43.8827 18.896 44.0987 18.512C44.3147 18.128 44.4227 17.656 44.4227 17.096C44.4227 16.536 44.3147 16.068 44.0987 15.692C43.8827 15.308 43.5667 15.116 43.1507 15.116C42.7347 15.116 42.4187 15.308 42.2027 15.692C41.9867 16.068 41.8787 16.536 41.8787 17.096C41.8787 17.656 41.9867 18.128 42.2027 18.512ZM46.298 21.476V19.052C46.57 18.996 46.77 18.856 46.898 18.632C47.026 18.408 47.122 17.944 47.186 17.24L47.45 14.204H51.194V18.956H51.818V21.476H50.618V20H47.486V21.476H46.298ZM48.542 15.248L48.386 17.336C48.33 18.056 48.114 18.596 47.738 18.956H50.006V15.248H48.542Z" fill="#444444"/>
</svg>
