<svg width="101" height="130" viewBox="0 0 101 130" fill="none" xmlns="http://www.w3.org/2000/svg">
<path d="M34.7624 17.6596H32.7144L30.5064 13.5956L28.3144 17.6596H26.2664L29.4184 12.2036L26.4584 6.98764H28.4904L30.5064 10.8276L32.5224 6.98764H34.5704L31.6104 12.1876L34.7624 17.6596ZM41.3249 17.6596H39.7409V16.8756C39.2715 17.5263 38.5942 17.8516 37.7089 17.8516C37.0475 17.8516 36.4875 17.6223 36.0289 17.1636C35.5702 16.6943 35.3409 16.065 35.3409 15.2756C35.3409 14.4863 35.5702 13.873 36.0289 13.4356C36.4875 12.9876 37.0475 12.7636 37.7089 12.7636C38.6155 12.7636 39.2929 13.073 39.7409 13.6916V12.5716C39.7409 12.1023 39.6075 11.7396 39.3409 11.4836C39.0849 11.2276 38.7169 11.0996 38.2369 11.0996C37.5329 11.0996 36.8929 11.393 36.3169 11.9796L35.6929 10.8596C36.4395 10.113 37.3835 9.73964 38.5249 9.73964C39.3782 9.73964 40.0555 9.9583 40.5569 10.3956C41.0689 10.8223 41.3249 11.4836 41.3249 12.3796V17.6596ZM38.2849 16.7476C38.9249 16.7476 39.4102 16.465 39.7409 15.8996V14.7316C39.5915 14.465 39.3835 14.257 39.1169 14.1076C38.8502 13.9476 38.5729 13.8676 38.2849 13.8676C37.8795 13.8676 37.5542 14.001 37.3089 14.2676C37.0635 14.5343 36.9409 14.881 36.9409 15.3076C36.9409 15.7343 37.0635 16.081 37.3089 16.3476C37.5542 16.6143 37.8795 16.7476 38.2849 16.7476ZM46.1536 16.4436C46.7083 16.4436 47.1296 16.1876 47.4176 15.6756C47.7056 15.153 47.8496 14.513 47.8496 13.7556C47.8496 13.0303 47.7056 12.417 47.4176 11.9156C47.1296 11.4036 46.7083 11.1476 46.1536 11.1476C45.6096 11.1476 45.1936 11.4036 44.9056 11.9156C44.6176 12.417 44.4736 13.0303 44.4736 13.7556C44.4736 14.513 44.6176 15.153 44.9056 15.6756C45.1936 16.1876 45.6096 16.4436 46.1536 16.4436ZM46.1536 17.8516C45.087 17.8516 44.2656 17.4463 43.6896 16.6356C43.1136 15.8143 42.8256 14.7476 42.8256 13.4356C42.8256 11.4623 43.0656 10.0703 43.5456 9.25964C44.0363 8.44897 44.911 7.93697 46.1696 7.72364C46.735 7.62764 47.1243 7.5263 47.3376 7.41964C47.5616 7.31297 47.6736 7.16897 47.6736 6.98764H49.2576C49.2576 7.33964 49.1723 7.64897 49.0016 7.91564C48.831 8.17164 48.591 8.3743 48.2816 8.52364C47.983 8.67297 47.7056 8.78497 47.4496 8.85964C47.1936 8.9343 46.9003 8.9983 46.5696 9.05164C45.0976 9.2863 44.2976 9.92097 44.1696 10.9556C44.3936 10.5823 44.703 10.289 45.0976 10.0756C45.4923 9.85164 45.935 9.73964 46.4256 9.73964C47.375 9.73964 48.1216 10.129 48.6656 10.9076C49.2203 11.6863 49.4976 12.641 49.4976 13.7716C49.4976 14.913 49.2043 15.8783 48.6176 16.6676C48.031 17.457 47.2096 17.8516 46.1536 17.8516ZM56.6374 17.6596H55.0534V16.8756C54.584 17.5263 53.9067 17.8516 53.0214 17.8516C52.36 17.8516 51.8 17.6223 51.3414 17.1636C50.8827 16.6943 50.6534 16.065 50.6534 15.2756C50.6534 14.4863 50.8827 13.873 51.3414 13.4356C51.8 12.9876 52.36 12.7636 53.0214 12.7636C53.928 12.7636 54.6054 13.073 55.0534 13.6916V12.5716C55.0534 12.1023 54.92 11.7396 54.6534 11.4836C54.3974 11.2276 54.0294 11.0996 53.5494 11.0996C52.8454 11.0996 52.2054 11.393 51.6294 11.9796L51.0054 10.8596C51.752 10.113 52.696 9.73964 53.8374 9.73964C54.6907 9.73964 55.368 9.9583 55.8694 10.3956C56.3814 10.8223 56.6374 11.4836 56.6374 12.3796V17.6596ZM53.5974 16.7476C54.2374 16.7476 54.7227 16.465 55.0534 15.8996V14.7316C54.904 14.465 54.696 14.257 54.4294 14.1076C54.1627 13.9476 53.8854 13.8676 53.5974 13.8676C53.192 13.8676 52.8667 14.001 52.6214 14.2676C52.376 14.5343 52.2534 14.881 52.2534 15.3076C52.2534 15.7343 52.376 16.081 52.6214 16.3476C52.8667 16.6143 53.192 16.7476 53.5974 16.7476ZM64.1541 16.7476C63.6528 17.4836 62.9701 17.8516 62.1061 17.8516C61.2421 17.8516 60.5808 17.441 60.1221 16.6196V20.6036H58.5221V9.93164H60.1221V10.9556C60.3461 10.5716 60.6341 10.273 60.9861 10.0596C61.3381 9.8463 61.7115 9.73964 62.1061 9.73964C62.9808 9.73964 63.6688 10.1023 64.1701 10.8276C64.6715 11.553 64.9221 12.5396 64.9221 13.7876C64.9221 15.025 64.6661 16.0116 64.1541 16.7476ZM61.6261 16.4436C62.1595 16.4436 62.5648 16.1983 62.8421 15.7076C63.1301 15.2063 63.2741 14.5663 63.2741 13.7876C63.2741 13.009 63.1301 12.3743 62.8421 11.8836C62.5648 11.393 62.1595 11.1476 61.6261 11.1476C61.3275 11.1476 61.0341 11.249 60.7461 11.4516C60.4688 11.6543 60.2608 11.905 60.1221 12.2036V15.3716C60.2608 15.6703 60.4688 15.9263 60.7461 16.1396C61.0341 16.3423 61.3275 16.4436 61.6261 16.4436ZM71.8051 16.6836C71.2185 17.4623 70.4025 17.8516 69.3571 17.8516C68.3118 17.8516 67.4905 17.4623 66.8931 16.6836C66.3065 15.905 66.0131 14.9396 66.0131 13.7876C66.0131 12.6356 66.3065 11.6756 66.8931 10.9076C67.4798 10.129 68.3011 9.73964 69.3571 9.73964C70.4131 9.73964 71.2345 10.129 71.8211 10.9076C72.4078 11.6756 72.7011 12.6356 72.7011 13.7876C72.7011 14.9396 72.4025 15.905 71.8051 16.6836ZM68.0931 15.6756C68.3811 16.1876 68.8025 16.4436 69.3571 16.4436C69.9118 16.4436 70.3331 16.1876 70.6211 15.6756C70.9091 15.1636 71.0531 14.5343 71.0531 13.7876C71.0531 13.041 70.9091 12.417 70.6211 11.9156C70.3331 11.4036 69.9118 11.1476 69.3571 11.1476C68.8025 11.1476 68.3811 11.4036 68.0931 11.9156C67.8051 12.417 67.6611 13.041 67.6611 13.7876C67.6611 14.5343 67.8051 15.1636 68.0931 15.6756ZM77.8736 17.6596H74.2096V9.93164H77.7776C78.535 9.93164 79.111 10.1183 79.5056 10.4916C79.911 10.8543 80.1136 11.3236 80.1136 11.8996C80.1136 12.3476 79.991 12.7263 79.7456 13.0356C79.511 13.3343 79.191 13.5423 78.7856 13.6596C79.2123 13.7556 79.5643 13.985 79.8416 14.3476C80.119 14.6996 80.2576 15.105 80.2576 15.5636C80.2576 16.193 80.055 16.6996 79.6496 17.0836C79.255 17.4676 78.663 17.6596 77.8736 17.6596ZM77.5376 16.3156C78.263 16.3156 78.6256 15.9956 78.6256 15.3556C78.6256 15.0783 78.5296 14.8436 78.3376 14.6516C78.1563 14.4596 77.8896 14.3636 77.5376 14.3636H75.8096V16.3156H77.5376ZM77.4736 13.0356C78.135 13.0356 78.4656 12.7423 78.4656 12.1556C78.4656 11.889 78.3803 11.6756 78.2096 11.5156C78.0496 11.345 77.8043 11.2596 77.4736 11.2596H75.8096V13.0356H77.4736ZM87.3665 16.8116C86.8118 17.505 86.0278 17.8516 85.0145 17.8516C84.0012 17.8516 83.1798 17.473 82.5505 16.7156C81.9318 15.9476 81.6225 14.9716 81.6225 13.7876C81.6225 12.6036 81.9318 11.633 82.5505 10.8756C83.1692 10.1183 83.9905 9.73964 85.0145 9.73964C86.0278 9.73964 86.8118 10.0863 87.3665 10.7796L86.5505 11.8676C86.1772 11.3876 85.7185 11.1476 85.1745 11.1476C84.5878 11.1476 84.1238 11.3983 83.7825 11.8996C83.4412 12.401 83.2705 13.0303 83.2705 13.7876C83.2705 14.5556 83.4412 15.1903 83.7825 15.6916C84.1238 16.193 84.5878 16.4436 85.1745 16.4436C85.7078 16.4436 86.1665 16.2036 86.5505 15.7236L87.3665 16.8116ZM94.8711 17.6596H92.9991L91.1751 14.4276L90.2471 15.6756V17.6596H88.6471V9.93164H90.2471V13.7236L92.9671 9.93164H94.8231L92.2631 13.4036L94.8711 17.6596Z" fill="#444444"/>
<circle cx="60.5" cy="26.6596" r="4" fill="#444444"/>
<circle cx="47.6328" cy="103.918" r="4" fill="#444444"/>
<path d="M11.8793 122.918H7.71931V112.246H11.7513C12.626 112.246 13.3033 112.502 13.7833 113.014C14.2633 113.526 14.5033 114.177 14.5033 114.966C14.5033 115.617 14.3433 116.156 14.0233 116.582C13.714 116.998 13.314 117.276 12.8233 117.414C13.346 117.489 13.7833 117.782 14.1353 118.294C14.498 118.796 14.6793 119.377 14.6793 120.038C14.6793 120.902 14.4393 121.601 13.9593 122.134C13.4793 122.657 12.786 122.918 11.8793 122.918ZM11.3673 116.694C11.8046 116.694 12.13 116.566 12.3433 116.31C12.5673 116.044 12.6793 115.692 12.6793 115.254C12.6793 114.817 12.5673 114.465 12.3433 114.198C12.1193 113.932 11.794 113.798 11.3673 113.798H9.49531V116.694H11.3673ZM11.4313 121.35C11.9006 121.35 12.2526 121.217 12.4873 120.95C12.7326 120.673 12.8553 120.289 12.8553 119.798C12.8553 119.35 12.7326 118.982 12.4873 118.694C12.242 118.406 11.89 118.262 11.4313 118.262H9.49531V121.35H11.4313ZM15.5146 123.11V121.75C15.8452 121.75 16.1012 121.574 16.2826 121.222C16.4746 120.87 16.6132 120.209 16.6986 119.238L17.0506 115.19H22.0426V122.918H20.4586V116.582H18.5066L18.2986 119.366C18.1919 120.732 17.9092 121.697 17.4506 122.262C16.9919 122.828 16.3466 123.11 15.5146 123.11ZM29.5202 122.918H27.9362V122.134C27.4669 122.785 26.7895 123.11 25.9042 123.11C25.2429 123.11 24.6829 122.881 24.2242 122.422C23.7655 121.953 23.5362 121.324 23.5362 120.534C23.5362 119.745 23.7655 119.132 24.2242 118.694C24.6829 118.246 25.2429 118.022 25.9042 118.022C26.8109 118.022 27.4882 118.332 27.9362 118.95V117.83C27.9362 117.361 27.8029 116.998 27.5362 116.742C27.2802 116.486 26.9122 116.358 26.4322 116.358C25.7282 116.358 25.0882 116.652 24.5122 117.238L23.8882 116.118C24.6349 115.372 25.5789 114.998 26.7202 114.998C27.5735 114.998 28.2509 115.217 28.7522 115.654C29.2642 116.081 29.5202 116.742 29.5202 117.638V122.918ZM26.4802 122.006C27.1202 122.006 27.6055 121.724 27.9362 121.158V119.99C27.7869 119.724 27.5789 119.516 27.3122 119.366C27.0455 119.206 26.7682 119.126 26.4802 119.126C26.0749 119.126 25.7495 119.26 25.5042 119.526C25.2589 119.793 25.1362 120.14 25.1362 120.566C25.1362 120.993 25.2589 121.34 25.5042 121.606C25.7495 121.873 26.0749 122.006 26.4802 122.006ZM30.7489 124.886V121.654C31.1116 121.58 31.3783 121.393 31.5489 121.094C31.7196 120.796 31.8476 120.177 31.9329 119.238L32.2849 115.19H37.2769V121.526H38.1089V124.886H36.5089V122.918H32.3329V124.886H30.7489ZM33.7409 116.582L33.5329 119.366C33.4583 120.326 33.1703 121.046 32.6689 121.526H35.6929V116.582H33.7409ZM40.8476 122.918H39.2956V115.19H40.8956V120.038L43.5356 115.19H45.1676V122.918H43.5836V117.91L40.8476 122.918ZM50.7252 122.918H47.0612V115.19H50.6292C51.3865 115.19 51.9625 115.377 52.3572 115.75C52.7625 116.113 52.9652 116.582 52.9652 117.158C52.9652 117.606 52.8425 117.985 52.5972 118.294C52.3625 118.593 52.0425 118.801 51.6372 118.918C52.0639 119.014 52.4159 119.244 52.6932 119.606C52.9705 119.958 53.1092 120.364 53.1092 120.822C53.1092 121.452 52.9065 121.958 52.5012 122.342C52.1065 122.726 51.5145 122.918 50.7252 122.918ZM50.3892 121.574C51.1145 121.574 51.4772 121.254 51.4772 120.614C51.4772 120.337 51.3812 120.102 51.1892 119.91C51.0079 119.718 50.7412 119.622 50.3892 119.622H48.6612V121.574H50.3892ZM50.3252 118.294C50.9865 118.294 51.3172 118.001 51.3172 117.414C51.3172 117.148 51.2319 116.934 51.0612 116.774C50.9012 116.604 50.6559 116.518 50.3252 116.518H48.6612V118.294H50.3252ZM60.2661 121.942C59.6794 122.721 58.8634 123.11 57.8181 123.11C56.7727 123.11 55.9514 122.721 55.3541 121.942C54.7674 121.164 54.4741 120.198 54.4741 119.046C54.4741 117.894 54.7674 116.934 55.3541 116.166C55.9407 115.388 56.7621 114.998 57.8181 114.998C58.8741 114.998 59.6954 115.388 60.2821 116.166C60.8687 116.934 61.1621 117.894 61.1621 119.046C61.1621 120.198 60.8634 121.164 60.2661 121.942ZM56.5541 120.934C56.8421 121.446 57.2634 121.702 57.8181 121.702C58.3727 121.702 58.7941 121.446 59.0821 120.934C59.3701 120.422 59.5141 119.793 59.5141 119.046C59.5141 118.3 59.3701 117.676 59.0821 117.174C58.7941 116.662 58.3727 116.406 57.8181 116.406C57.2634 116.406 56.8421 116.662 56.5541 117.174C56.2661 117.676 56.1221 118.3 56.1221 119.046C56.1221 119.793 56.2661 120.422 56.5541 120.934ZM68.0306 122.07C67.4759 122.764 66.6919 123.11 65.6786 123.11C64.6652 123.11 63.8439 122.732 63.2146 121.974C62.5959 121.206 62.2866 120.23 62.2866 119.046C62.2866 117.862 62.5959 116.892 63.2146 116.134C63.8332 115.377 64.6546 114.998 65.6786 114.998C66.6919 114.998 67.4759 115.345 68.0306 116.038L67.2146 117.126C66.8412 116.646 66.3826 116.406 65.8386 116.406C65.2519 116.406 64.7879 116.657 64.4466 117.158C64.1052 117.66 63.9346 118.289 63.9346 119.046C63.9346 119.814 64.1052 120.449 64.4466 120.95C64.7879 121.452 65.2519 121.702 65.8386 121.702C66.3719 121.702 66.8306 121.462 67.2146 120.982L68.0306 122.07ZM71.9992 122.918H70.3992V116.582H68.6552V115.19H73.7432V116.582H71.9992V122.918ZM80.3754 121.942C79.7888 122.721 78.9728 123.11 77.9274 123.11C76.8821 123.11 76.0608 122.721 75.4634 121.942C74.8768 121.164 74.5834 120.198 74.5834 119.046C74.5834 117.894 74.8768 116.934 75.4634 116.166C76.0501 115.388 76.8714 114.998 77.9274 114.998C78.9834 114.998 79.8048 115.388 80.3914 116.166C80.9781 116.934 81.2714 117.894 81.2714 119.046C81.2714 120.198 80.9728 121.164 80.3754 121.942ZM76.6634 120.934C76.9514 121.446 77.3728 121.702 77.9274 121.702C78.4821 121.702 78.9034 121.446 79.1914 120.934C79.4794 120.422 79.6234 119.793 79.6234 119.046C79.6234 118.3 79.4794 117.676 79.1914 117.174C78.9034 116.662 78.4821 116.406 77.9274 116.406C77.3728 116.406 76.9514 116.662 76.6634 117.174C76.3754 117.676 76.2314 118.3 76.2314 119.046C76.2314 119.793 76.3754 120.422 76.6634 120.934ZM89.0039 122.918H87.1319L85.3079 119.686L84.3799 120.934V122.918H82.7799V115.19H84.3799V118.982L87.0999 115.19H88.9559L86.3959 118.662L89.0039 122.918Z" fill="#444444"/>
</svg>
