<svg width="55" height="29" viewBox="0 0 55 29" fill="none" xmlns="http://www.w3.org/2000/svg">
<circle cx="27.5" cy="4.82275" r="4" fill="#444444"/>
<path d="M15.7309 21.8228H14.1909V15.3828L11.9229 21.8228H11.3209L9.08086 15.3828V21.8228H7.52686V12.4848H9.62686L11.6289 18.1688L13.6449 12.4848H15.7309V21.8228ZM22.1693 20.9688C21.656 21.6501 20.942 21.9908 20.0273 21.9908C19.1127 21.9908 18.394 21.6501 17.8713 20.9688C17.358 20.2874 17.1013 19.4428 17.1013 18.4348C17.1013 17.4268 17.358 16.5868 17.8713 15.9148C18.3847 15.2334 19.1033 14.8928 20.0273 14.8928C20.9513 14.8928 21.67 15.2334 22.1833 15.9148C22.6967 16.5868 22.9533 17.4268 22.9533 18.4348C22.9533 19.4428 22.692 20.2874 22.1693 20.9688ZM18.9213 20.0868C19.1733 20.5348 19.542 20.7588 20.0273 20.7588C20.5127 20.7588 20.8813 20.5348 21.1333 20.0868C21.3853 19.6388 21.5113 19.0881 21.5113 18.4348C21.5113 17.7814 21.3853 17.2354 21.1333 16.7968C20.8813 16.3488 20.5127 16.1248 20.0273 16.1248C19.542 16.1248 19.1733 16.3488 18.9213 16.7968C18.6693 17.2354 18.5433 17.7814 18.5433 18.4348C18.5433 19.0881 18.6693 19.6388 18.9213 20.0868ZM28.9633 21.0808C28.4779 21.6874 27.7919 21.9908 26.9053 21.9908C26.0186 21.9908 25.2999 21.6594 24.7493 20.9968C24.2079 20.3248 23.9373 19.4708 23.9373 18.4348C23.9373 17.3988 24.2079 16.5494 24.7493 15.8868C25.2906 15.2241 26.0093 14.8928 26.9053 14.8928C27.7919 14.8928 28.4779 15.1961 28.9633 15.8028L28.2493 16.7548C27.9226 16.3348 27.5213 16.1248 27.0453 16.1248C26.5319 16.1248 26.1259 16.3441 25.8273 16.7828C25.5286 17.2214 25.3793 17.7721 25.3793 18.4348C25.3793 19.1068 25.5286 19.6621 25.8273 20.1008C26.1259 20.5394 26.5319 20.7588 27.0453 20.7588C27.5119 20.7588 27.9133 20.5488 28.2493 20.1288L28.9633 21.0808ZM35.5298 21.8228H33.8918L32.2958 18.9948L31.4838 20.0868V21.8228H30.0838V15.0608H31.4838V18.3788L33.8638 15.0608H35.4878L33.2478 18.0988L35.5298 21.8228ZM39.6746 21.8228H36.4686V15.0608H39.5906C40.2532 15.0608 40.7572 15.2241 41.1026 15.5508C41.4572 15.8681 41.6346 16.2788 41.6346 16.7828C41.6346 17.1748 41.5272 17.5061 41.3126 17.7768C41.1072 18.0381 40.8272 18.2201 40.4726 18.3228C40.8459 18.4068 41.1539 18.6074 41.3966 18.9248C41.6392 19.2328 41.7606 19.5874 41.7606 19.9888C41.7606 20.5394 41.5832 20.9828 41.2286 21.3188C40.8832 21.6548 40.3652 21.8228 39.6746 21.8228ZM39.3806 20.6468C40.0152 20.6468 40.3326 20.3668 40.3326 19.8068C40.3326 19.5641 40.2486 19.3588 40.0806 19.1908C39.9219 19.0228 39.6886 18.9388 39.3806 18.9388H37.8686V20.6468H39.3806ZM39.3246 17.7768C39.9032 17.7768 40.1926 17.5201 40.1926 17.0068C40.1926 16.7734 40.1179 16.5868 39.9686 16.4468C39.8286 16.2974 39.6139 16.2228 39.3246 16.2228H37.8686V17.7768H39.3246ZM48.1768 21.8228H46.7908V21.1368C46.3802 21.7061 45.7875 21.9908 45.0128 21.9908C44.4342 21.9908 43.9442 21.7901 43.5428 21.3888C43.1415 20.9781 42.9408 20.4274 42.9408 19.7368C42.9408 19.0461 43.1415 18.5094 43.5428 18.1268C43.9442 17.7348 44.4342 17.5388 45.0128 17.5388C45.8062 17.5388 46.3988 17.8094 46.7908 18.3508V17.3708C46.7908 16.9601 46.6742 16.6428 46.4408 16.4188C46.2168 16.1948 45.8948 16.0828 45.4748 16.0828C44.8588 16.0828 44.2988 16.3394 43.7948 16.8528L43.2488 15.8728C43.9022 15.2194 44.7282 14.8928 45.7268 14.8928C46.4735 14.8928 47.0662 15.0841 47.5048 15.4668C47.9528 15.8401 48.1768 16.4188 48.1768 17.2028V21.8228ZM45.5168 21.0248C46.0768 21.0248 46.5015 20.7774 46.7908 20.2828V19.2608C46.6602 19.0274 46.4782 18.8454 46.2448 18.7148C46.0115 18.5748 45.7688 18.5048 45.5168 18.5048C45.1622 18.5048 44.8775 18.6214 44.6628 18.8548C44.4482 19.0881 44.3408 19.3914 44.3408 19.7648C44.3408 20.1381 44.4482 20.4414 44.6628 20.6748C44.8775 20.9081 45.1622 21.0248 45.5168 21.0248Z" fill="#444444"/>
</svg>
