<svg width="213" height="42" viewBox="0 0 213 42" fill="none" xmlns="http://www.w3.org/2000/svg">
<circle cx="150.5" cy="11.5994" r="4" fill="#444444"/>
<path d="M101.945 32.7914C100.622 32.7914 99.5661 32.2794 98.7768 31.2554C97.9874 30.2207 97.5928 28.8927 97.5928 27.2714C97.5928 25.6394 97.9874 24.3114 98.7768 23.2874C99.5661 22.2634 100.622 21.7514 101.945 21.7514C103.449 21.7514 104.574 22.5354 105.321 24.1034L103.849 24.7594C103.433 23.7994 102.798 23.3194 101.945 23.3194C101.177 23.3194 100.558 23.6874 100.089 24.4234C99.6301 25.1594 99.4008 26.1087 99.4008 27.2714C99.4008 28.4234 99.6301 29.3674 100.089 30.1034C100.558 30.8394 101.177 31.2074 101.945 31.2074C102.393 31.2074 102.777 31.0634 103.097 30.7754C103.427 30.4874 103.683 30.1087 103.865 29.6394L105.337 30.2954C104.611 31.9594 103.481 32.7914 101.945 32.7914ZM112.247 32.5994H110.663V31.8154C110.193 32.466 109.516 32.7914 108.631 32.7914C107.969 32.7914 107.409 32.562 106.951 32.1034C106.492 31.634 106.263 31.0047 106.263 30.2154C106.263 29.426 106.492 28.8127 106.951 28.3754C107.409 27.9274 107.969 27.7034 108.631 27.7034C109.537 27.7034 110.215 28.0127 110.663 28.6314V27.5114C110.663 27.042 110.529 26.6794 110.263 26.4234C110.007 26.1674 109.639 26.0394 109.159 26.0394C108.455 26.0394 107.815 26.3327 107.239 26.9194L106.615 25.7994C107.361 25.0527 108.305 24.6794 109.447 24.6794C110.3 24.6794 110.977 24.898 111.479 25.3354C111.991 25.762 112.247 26.4234 112.247 27.3194V32.5994ZM109.207 31.6874C109.847 31.6874 110.332 31.4047 110.663 30.8394V29.6714C110.513 29.4047 110.305 29.1967 110.039 29.0474C109.772 28.8874 109.495 28.8074 109.207 28.8074C108.801 28.8074 108.476 28.9407 108.231 29.2074C107.985 29.474 107.863 29.8207 107.863 30.2474C107.863 30.674 107.985 31.0207 108.231 31.2874C108.476 31.554 108.801 31.6874 109.207 31.6874ZM115.732 32.5994H114.132V24.8714H115.732V27.9114H118.42V24.8714H120.004V32.5994H118.42V29.3034H115.732V32.5994ZM128.121 32.5994H126.249L124.425 29.3674L123.497 30.6154V32.5994H121.897V24.8714H123.497V28.6634L126.217 24.8714H128.073L125.513 28.3434L128.121 32.5994ZM131.882 32.5994H130.282V26.2634H128.538V24.8714H133.626V26.2634H131.882V32.5994ZM137.73 29.4154H134.386V28.0394H137.73V29.4154ZM146.683 32.5994H144.907V23.4794H141.003V32.5994H139.227V21.9274H146.683V32.5994ZM151.72 32.7914C150.664 32.7914 149.821 32.418 149.192 31.6714C148.562 30.9247 148.248 29.9434 148.248 28.7274C148.248 27.5754 148.546 26.6154 149.144 25.8474C149.752 25.0687 150.557 24.6794 151.56 24.6794C152.573 24.6794 153.362 25.0634 153.928 25.8314C154.493 26.5994 154.776 27.586 154.776 28.7914V29.2554H149.864C149.896 29.9167 150.088 30.4554 150.44 30.8714C150.792 31.2767 151.272 31.4794 151.88 31.4794C152.573 31.4794 153.154 31.202 153.624 30.6474L154.392 31.6074C153.698 32.3967 152.808 32.7914 151.72 32.7914ZM153.224 28.1194C153.213 27.554 153.069 27.058 152.792 26.6314C152.525 26.194 152.109 25.9754 151.544 25.9754C151 25.9754 150.589 26.194 150.312 26.6314C150.034 27.0687 149.88 27.5647 149.848 28.1194H153.224ZM158.898 32.5994H157.298V26.2634H155.554V24.8714H160.642V26.2634H158.898V32.5994ZM164.954 32.7914C163.898 32.7914 163.055 32.418 162.426 31.6714C161.797 30.9247 161.482 29.9434 161.482 28.7274C161.482 27.5754 161.781 26.6154 162.378 25.8474C162.986 25.0687 163.791 24.6794 164.794 24.6794C165.807 24.6794 166.597 25.0634 167.162 25.8314C167.727 26.5994 168.01 27.586 168.01 28.7914V29.2554H163.098C163.13 29.9167 163.322 30.4554 163.674 30.8714C164.026 31.2767 164.506 31.4794 165.114 31.4794C165.807 31.4794 166.389 31.202 166.858 30.6474L167.626 31.6074C166.933 32.3967 166.042 32.7914 164.954 32.7914ZM166.458 28.1194C166.447 27.554 166.303 27.058 166.026 26.6314C165.759 26.194 165.343 25.9754 164.778 25.9754C164.234 25.9754 163.823 26.194 163.546 26.6314C163.269 27.0687 163.114 27.5647 163.082 28.1194H166.458ZM175.076 31.6874C174.575 32.4234 173.892 32.7914 173.028 32.7914C172.164 32.7914 171.503 32.3807 171.044 31.5594V35.5434H169.444V24.8714H171.044V25.8954C171.268 25.5114 171.556 25.2127 171.908 24.9994C172.26 24.786 172.633 24.6794 173.028 24.6794C173.903 24.6794 174.591 25.042 175.092 25.7674C175.593 26.4927 175.844 27.4794 175.844 28.7274C175.844 29.9647 175.588 30.9514 175.076 31.6874ZM172.548 31.3834C173.081 31.3834 173.487 31.138 173.764 30.6474C174.052 30.146 174.196 29.506 174.196 28.7274C174.196 27.9487 174.052 27.314 173.764 26.8234C173.487 26.3327 173.081 26.0874 172.548 26.0874C172.249 26.0874 171.956 26.1887 171.668 26.3914C171.391 26.594 171.183 26.8447 171.044 27.1434V30.3114C171.183 30.61 171.391 30.866 171.668 31.0794C171.956 31.282 172.249 31.3834 172.548 31.3834ZM180.263 31.3834C180.818 31.3834 181.239 31.1274 181.527 30.6154C181.815 30.0927 181.959 29.4527 181.959 28.6954C181.959 27.97 181.815 27.3567 181.527 26.8554C181.239 26.3434 180.818 26.0874 180.263 26.0874C179.719 26.0874 179.303 26.3434 179.015 26.8554C178.727 27.3567 178.583 27.97 178.583 28.6954C178.583 29.4527 178.727 30.0927 179.015 30.6154C179.303 31.1274 179.719 31.3834 180.263 31.3834ZM180.263 32.7914C179.196 32.7914 178.375 32.386 177.799 31.5754C177.223 30.754 176.935 29.6874 176.935 28.3754C176.935 26.402 177.175 25.01 177.655 24.1994C178.146 23.3887 179.02 22.8767 180.279 22.6634C180.844 22.5674 181.234 22.466 181.447 22.3594C181.671 22.2527 181.783 22.1087 181.783 21.9274H183.367C183.367 22.2794 183.282 22.5887 183.111 22.8554C182.94 23.1114 182.7 23.314 182.391 23.4634C182.092 23.6127 181.815 23.7247 181.559 23.7994C181.303 23.874 181.01 23.938 180.679 23.9914C179.207 24.226 178.407 24.8607 178.279 25.8954C178.503 25.522 178.812 25.2287 179.207 25.0154C179.602 24.7914 180.044 24.6794 180.535 24.6794C181.484 24.6794 182.231 25.0687 182.775 25.8474C183.33 26.626 183.607 27.5807 183.607 28.7114C183.607 29.8527 183.314 30.818 182.727 31.6074C182.14 32.3967 181.319 32.7914 180.263 32.7914ZM184.891 35.6234L185.131 34.2154C185.269 34.29 185.44 34.3274 185.643 34.3274C186.069 34.3274 186.363 34.114 186.523 33.6874L186.843 32.7594L184.251 24.8714H185.947L187.659 30.6794L189.387 24.8714H191.083L188.027 34.0554C187.824 34.674 187.536 35.106 187.163 35.3514C186.8 35.6074 186.331 35.7354 185.755 35.7354C185.424 35.7354 185.136 35.698 184.891 35.6234ZM197.67 31.6874C197.168 32.4234 196.486 32.7914 195.622 32.7914C194.758 32.7914 194.096 32.3807 193.638 31.5594V35.5434H192.038V24.8714H193.638V25.8954C193.862 25.5114 194.15 25.2127 194.502 24.9994C194.854 24.786 195.227 24.6794 195.622 24.6794C196.496 24.6794 197.184 25.042 197.686 25.7674C198.187 26.4927 198.438 27.4794 198.438 28.7274C198.438 29.9647 198.182 30.9514 197.67 31.6874ZM195.142 31.3834C195.675 31.3834 196.08 31.138 196.358 30.6474C196.646 30.146 196.79 29.506 196.79 28.7274C196.79 27.9487 196.646 27.314 196.358 26.8234C196.08 26.3327 195.675 26.0874 195.142 26.0874C194.843 26.0874 194.55 26.1887 194.262 26.3914C193.984 26.594 193.776 26.8447 193.638 27.1434V30.3114C193.776 30.61 193.984 30.866 194.262 31.0794C194.55 31.282 194.843 31.3834 195.142 31.3834ZM204.713 24.8714V26.2634H201.513V32.5994H199.913V24.8714H204.713Z" fill="#444444"/>
<circle cx="39.5" cy="4.49634" r="4" fill="#444444"/>
<path d="M14.336 22.4963H12.764L10.7 19.1963L10.1 20.1083V22.4963H8.768V14.4923H10.1V18.3443L12.584 14.4923H14.144L11.528 18.2723L14.336 22.4963ZM19.2241 22.4963H18.0361V21.9083C17.6841 22.3963 17.1761 22.6403 16.5121 22.6403C16.0161 22.6403 15.5961 22.4683 15.2521 22.1243C14.9081 21.7723 14.7361 21.3003 14.7361 20.7083C14.7361 20.1163 14.9081 19.6563 15.2521 19.3283C15.5961 18.9923 16.0161 18.8243 16.5121 18.8243C17.1921 18.8243 17.7001 19.0563 18.0361 19.5203V18.6803C18.0361 18.3283 17.9361 18.0563 17.7361 17.8643C17.5441 17.6723 17.2681 17.5763 16.9081 17.5763C16.3801 17.5763 15.9001 17.7963 15.4681 18.2363L15.0001 17.3963C15.5601 16.8363 16.2681 16.5563 17.1241 16.5563C17.7641 16.5563 18.2721 16.7203 18.6481 17.0483C19.0321 17.3683 19.2241 17.8643 19.2241 18.5363V22.4963ZM16.9441 21.8123C17.4241 21.8123 17.7881 21.6003 18.0361 21.1763V20.3003C17.9241 20.1003 17.7681 19.9443 17.5681 19.8323C17.3681 19.7123 17.1601 19.6523 16.9441 19.6523C16.6401 19.6523 16.3961 19.7523 16.2121 19.9523C16.0281 20.1523 15.9361 20.4123 15.9361 20.7323C15.9361 21.0523 16.0281 21.3123 16.2121 21.5123C16.3961 21.7123 16.6401 21.8123 16.9441 21.8123ZM20.1457 22.6403V21.6203C20.3937 21.6203 20.5857 21.4883 20.7217 21.2243C20.8657 20.9603 20.9697 20.4643 21.0337 19.7363L21.2977 16.7003H25.0417V22.4963H23.8537V17.7443H22.3897L22.2337 19.8323C22.1537 20.8563 21.9417 21.5803 21.5977 22.0043C21.2537 22.4283 20.7697 22.6403 20.1457 22.6403ZM27.6259 22.4963H26.4619V16.7003H27.6619V20.3363L29.6419 16.7003H30.8659V22.4963H29.6779V18.7403L27.6259 22.4963ZM33.4861 22.4963H32.2861V16.7003H33.4861V18.9803H35.5021V16.7003H36.6901V22.4963H35.5021V20.0243H33.4861V22.4963ZM39.2743 22.4963H38.1103V16.7003H39.3103V20.3363L41.2903 16.7003H42.5143V22.4963H41.3263V18.7403L39.2743 22.4963ZM45.1346 22.4963H43.9346V16.7003H45.1346V18.9803H47.1506V16.7003H48.3386V22.4963H47.1506V20.0243H45.1346V22.4963ZM53.3588 16.7003V17.7443H50.9588V22.4963H49.7588V16.7003H53.3588ZM58.5062 21.8123C58.1302 22.3643 57.6182 22.6403 56.9702 22.6403C56.3222 22.6403 55.8262 22.3323 55.4822 21.7163V24.7043H54.2822V16.7003H55.4822V17.4683C55.6502 17.1803 55.8662 16.9563 56.1302 16.7963C56.3942 16.6363 56.6742 16.5563 56.9702 16.5563C57.6262 16.5563 58.1422 16.8283 58.5182 17.3723C58.8942 17.9163 59.0822 18.6563 59.0822 19.5923C59.0822 20.5203 58.8902 21.2603 58.5062 21.8123ZM56.6102 21.5843C57.0102 21.5843 57.3142 21.4003 57.5222 21.0323C57.7382 20.6563 57.8462 20.1763 57.8462 19.5923C57.8462 19.0083 57.7382 18.5323 57.5222 18.1643C57.3142 17.7963 57.0102 17.6123 56.6102 17.6123C56.3862 17.6123 56.1662 17.6883 55.9502 17.8403C55.7422 17.9923 55.5862 18.1803 55.4822 18.4043V20.7803C55.5862 21.0043 55.7422 21.1963 55.9502 21.3563C56.1662 21.5083 56.3862 21.5843 56.6102 21.5843ZM64.3765 22.4963H63.1885V21.9083C62.8365 22.3963 62.3285 22.6403 61.6645 22.6403C61.1685 22.6403 60.7485 22.4683 60.4045 22.1243C60.0605 21.7723 59.8885 21.3003 59.8885 20.7083C59.8885 20.1163 60.0605 19.6563 60.4045 19.3283C60.7485 18.9923 61.1685 18.8243 61.6645 18.8243C62.3445 18.8243 62.8525 19.0563 63.1885 19.5203V18.6803C63.1885 18.3283 63.0885 18.0563 62.8885 17.8643C62.6965 17.6723 62.4205 17.5763 62.0605 17.5763C61.5325 17.5763 61.0525 17.7963 60.6205 18.2363L60.1525 17.3963C60.7125 16.8363 61.4205 16.5563 62.2765 16.5563C62.9165 16.5563 63.4245 16.7203 63.8005 17.0483C64.1845 17.3683 64.3765 17.8643 64.3765 18.5363V22.4963ZM62.0965 21.8123C62.5765 21.8123 62.9405 21.6003 63.1885 21.1763V20.3003C63.0765 20.1003 62.9205 19.9443 62.7205 19.8323C62.5205 19.7123 62.3125 19.6523 62.0965 19.6523C61.7925 19.6523 61.5485 19.7523 61.3645 19.9523C61.1805 20.1523 61.0885 20.4123 61.0885 20.7323C61.0885 21.0523 61.1805 21.3123 61.3645 21.5123C61.5485 21.7123 61.7925 21.8123 62.0965 21.8123ZM65.298 23.9723V21.5483C65.57 21.4923 65.77 21.3523 65.898 21.1283C66.026 20.9043 66.122 20.4403 66.186 19.7363L66.45 16.7003H70.194V21.4523H70.818V23.9723H69.618V22.4963H66.486V23.9723H65.298ZM67.542 17.7443L67.386 19.8323C67.33 20.5523 67.114 21.0923 66.738 21.4523H69.006V17.7443H67.542Z" fill="#444444"/>
</svg>
