<svg width="282" height="80" viewBox="0 0 282 80" fill="none" xmlns="http://www.w3.org/2000/svg">
<circle cx="74" cy="20.6596" r="4" fill="#444444"/>
<path d="M48.8092 36.6596H47.4772V33.1316H44.5492V36.6596H43.2172V28.6556H44.5492V31.9556H47.4772V28.6556H48.8092V36.6596ZM54.3265 35.9276C53.8865 36.5116 53.2745 36.8036 52.4905 36.8036C51.7065 36.8036 51.0905 36.5116 50.6425 35.9276C50.2025 35.3436 49.9825 34.6196 49.9825 33.7556C49.9825 32.8916 50.2025 32.1716 50.6425 31.5956C51.0825 31.0116 51.6985 30.7196 52.4905 30.7196C53.2825 30.7196 53.8985 31.0116 54.3385 31.5956C54.7785 32.1716 54.9985 32.8916 54.9985 33.7556C54.9985 34.6196 54.7745 35.3436 54.3265 35.9276ZM51.5425 35.1716C51.7585 35.5556 52.0745 35.7476 52.4905 35.7476C52.9065 35.7476 53.2225 35.5556 53.4385 35.1716C53.6545 34.7876 53.7625 34.3156 53.7625 33.7556C53.7625 33.1956 53.6545 32.7276 53.4385 32.3516C53.2225 31.9676 52.9065 31.7756 52.4905 31.7756C52.0745 31.7756 51.7585 31.9676 51.5425 32.3516C51.3265 32.7276 51.2185 33.1956 51.2185 33.7556C51.2185 34.3156 51.3265 34.7876 51.5425 35.1716ZM58.8779 36.6596H56.1299V30.8636H58.8059C59.3739 30.8636 59.8059 31.0036 60.1019 31.2836C60.4059 31.5556 60.5579 31.9076 60.5579 32.3396C60.5579 32.6756 60.4659 32.9596 60.2819 33.1916C60.1059 33.4156 59.8659 33.5716 59.5619 33.6596C59.8819 33.7316 60.1459 33.9036 60.3539 34.1756C60.5619 34.4396 60.6659 34.7436 60.6659 35.0876C60.6659 35.5596 60.5139 35.9396 60.2099 36.2276C59.9139 36.5156 59.4699 36.6596 58.8779 36.6596ZM58.6259 35.6516C59.1699 35.6516 59.4419 35.4116 59.4419 34.9316C59.4419 34.7236 59.3699 34.5476 59.2259 34.4036C59.0899 34.2596 58.8899 34.1876 58.6259 34.1876H57.3299V35.6516H58.6259ZM58.5779 33.1916C59.0739 33.1916 59.3219 32.9716 59.3219 32.5316C59.3219 32.3316 59.2579 32.1716 59.1299 32.0516C59.0099 31.9236 58.8259 31.8596 58.5779 31.8596H57.3299V33.1916H58.5779ZM66.0335 35.9276C65.5935 36.5116 64.9815 36.8036 64.1975 36.8036C63.4135 36.8036 62.7975 36.5116 62.3495 35.9276C61.9095 35.3436 61.6895 34.6196 61.6895 33.7556C61.6895 32.8916 61.9095 32.1716 62.3495 31.5956C62.7895 31.0116 63.4055 30.7196 64.1975 30.7196C64.9895 30.7196 65.6055 31.0116 66.0455 31.5956C66.4855 32.1716 66.7055 32.8916 66.7055 33.7556C66.7055 34.6196 66.4815 35.3436 66.0335 35.9276ZM63.2495 35.1716C63.4655 35.5556 63.7815 35.7476 64.1975 35.7476C64.6135 35.7476 64.9295 35.5556 65.1455 35.1716C65.3615 34.7876 65.4695 34.3156 65.4695 33.7556C65.4695 33.1956 65.3615 32.7276 65.1455 32.3516C64.9295 31.9676 64.6135 31.7756 64.1975 31.7756C63.7815 31.7756 63.4655 31.9676 63.2495 32.3516C63.0335 32.7276 62.9255 33.1956 62.9255 33.7556C62.9255 34.3156 63.0335 34.7876 63.2495 35.1716ZM71.8569 36.0236C71.4409 36.5436 70.8529 36.8036 70.0929 36.8036C69.3329 36.8036 68.7169 36.5196 68.2449 35.9516C67.7809 35.3756 67.5489 34.6436 67.5489 33.7556C67.5489 32.8676 67.7809 32.1396 68.2449 31.5716C68.7089 31.0036 69.3249 30.7196 70.0929 30.7196C70.8529 30.7196 71.4409 30.9796 71.8569 31.4996L71.2449 32.3156C70.9649 31.9556 70.6209 31.7756 70.2129 31.7756C69.7729 31.7756 69.4249 31.9636 69.1689 32.3396C68.9129 32.7156 68.7849 33.1876 68.7849 33.7556C68.7849 34.3316 68.9129 34.8076 69.1689 35.1836C69.4249 35.5596 69.7729 35.7476 70.2129 35.7476C70.6129 35.7476 70.9569 35.5676 71.2449 35.2076L71.8569 36.0236ZM73.9814 36.6596H72.8174V30.8636H74.0174V34.4996L75.9974 30.8636H77.2214V36.6596H76.0334V32.9036L73.9814 36.6596ZM80.8496 35.7476C81.2656 35.7476 81.5816 35.5556 81.7976 35.1716C82.0136 34.7796 82.1216 34.2996 82.1216 33.7316C82.1216 33.1876 82.0136 32.7276 81.7976 32.3516C81.5816 31.9676 81.2656 31.7756 80.8496 31.7756C80.4416 31.7756 80.1296 31.9676 79.9136 32.3516C79.6976 32.7276 79.5896 33.1876 79.5896 33.7316C79.5896 34.2996 79.6976 34.7796 79.9136 35.1716C80.1296 35.5556 80.4416 35.7476 80.8496 35.7476ZM80.8496 36.8036C80.0496 36.8036 79.4336 36.4996 79.0016 35.8916C78.5696 35.2756 78.3536 34.4756 78.3536 33.4916C78.3536 32.0116 78.5336 30.9676 78.8936 30.3596C79.2616 29.7516 79.9176 29.3676 80.8616 29.2076C81.2856 29.1356 81.5776 29.0596 81.7376 28.9796C81.9056 28.8996 81.9896 28.7916 81.9896 28.6556H83.1776C83.1776 28.9196 83.1136 29.1516 82.9856 29.3516C82.8576 29.5436 82.6776 29.6956 82.4456 29.8076C82.2216 29.9196 82.0136 30.0036 81.8216 30.0596C81.6296 30.1156 81.4096 30.1636 81.1616 30.2036C80.0576 30.3796 79.4576 30.8556 79.3616 31.6316C79.5296 31.3516 79.7616 31.1316 80.0576 30.9716C80.3536 30.8036 80.6856 30.7196 81.0536 30.7196C81.7656 30.7196 82.3256 31.0116 82.7336 31.5956C83.1496 32.1796 83.3576 32.8956 83.3576 33.7436C83.3576 34.5996 83.1376 35.3236 82.6976 35.9156C82.2576 36.5076 81.6416 36.8036 80.8496 36.8036ZM85.6884 36.6596H84.5244V30.8636H85.7244V34.4996L87.7044 30.8636H88.9284V36.6596H87.7404V32.9036L85.6884 36.6596ZM94.5726 35.9756C94.1966 36.5276 93.6846 36.8036 93.0366 36.8036C92.3886 36.8036 91.8926 36.4956 91.5486 35.8796V38.8676H90.3486V30.8636H91.5486V31.6316C91.7166 31.3436 91.9326 31.1196 92.1966 30.9596C92.4606 30.7996 92.7406 30.7196 93.0366 30.7196C93.6926 30.7196 94.2086 30.9916 94.5846 31.5356C94.9606 32.0796 95.1486 32.8196 95.1486 33.7556C95.1486 34.6836 94.9566 35.4236 94.5726 35.9756ZM92.6766 35.7476C93.0766 35.7476 93.3806 35.5636 93.5886 35.1956C93.8046 34.8196 93.9126 34.3396 93.9126 33.7556C93.9126 33.1716 93.8046 32.6956 93.5886 32.3276C93.3806 31.9596 93.0766 31.7756 92.6766 31.7756C92.4526 31.7756 92.2326 31.8516 92.0166 32.0036C91.8086 32.1556 91.6526 32.3436 91.5486 32.5676V34.9436C91.6526 35.1676 91.8086 35.3596 92.0166 35.5196C92.2326 35.6716 92.4526 35.7476 92.6766 35.7476ZM100.275 36.0236C99.8589 36.5436 99.2709 36.8036 98.5109 36.8036C97.7509 36.8036 97.1349 36.5196 96.6629 35.9516C96.1989 35.3756 95.9669 34.6436 95.9669 33.7556C95.9669 32.8676 96.1989 32.1396 96.6629 31.5716C97.1269 31.0036 97.7429 30.7196 98.5109 30.7196C99.2709 30.7196 99.8589 30.9796 100.275 31.4996L99.6629 32.3156C99.3829 31.9556 99.0389 31.7756 98.6309 31.7756C98.1909 31.7756 97.8429 31.9636 97.5869 32.3396C97.3309 32.7156 97.2029 33.1876 97.2029 33.7556C97.2029 34.3316 97.3309 34.8076 97.5869 35.1836C97.8429 35.5596 98.1909 35.7476 98.6309 35.7476C99.0309 35.7476 99.3749 35.5676 99.6629 35.2076L100.275 36.0236ZM105.903 36.6596H104.499L103.131 34.2356L102.435 35.1716V36.6596H101.235V30.8636H102.435V33.7076L104.475 30.8636H105.867L103.947 33.4676L105.903 36.6596Z" fill="#444444"/>
<circle cx="197.5" cy="22.6596" r="4" fill="#444444"/>
<path d="M175.594 38.6596H174.022L171.958 35.3596L171.358 36.2716V38.6596H170.026V30.6556H171.358V34.5076L173.842 30.6556H175.402L172.786 34.4356L175.594 38.6596ZM180.612 37.9756C180.236 38.5276 179.724 38.8036 179.076 38.8036C178.428 38.8036 177.932 38.4956 177.588 37.8796V40.8676H176.388V32.8636H177.588V33.6316C177.756 33.3436 177.972 33.1196 178.236 32.9596C178.5 32.7996 178.78 32.7196 179.076 32.7196C179.732 32.7196 180.248 32.9916 180.624 33.5356C181 34.0796 181.188 34.8196 181.188 35.7556C181.188 36.6836 180.996 37.4236 180.612 37.9756ZM178.716 37.7476C179.116 37.7476 179.42 37.5636 179.628 37.1956C179.844 36.8196 179.952 36.3396 179.952 35.7556C179.952 35.1716 179.844 34.6956 179.628 34.3276C179.42 33.9596 179.116 33.7756 178.716 33.7756C178.492 33.7756 178.272 33.8516 178.056 34.0036C177.848 34.1556 177.692 34.3436 177.588 34.5676V36.9436C177.692 37.1676 177.848 37.3596 178.056 37.5196C178.272 37.6716 178.492 37.7476 178.716 37.7476ZM186.482 38.6596H185.294V38.0716C184.942 38.5596 184.434 38.8036 183.77 38.8036C183.274 38.8036 182.854 38.6316 182.51 38.2876C182.166 37.9356 181.994 37.4636 181.994 36.8716C181.994 36.2796 182.166 35.8196 182.51 35.4916C182.854 35.1556 183.274 34.9876 183.77 34.9876C184.45 34.9876 184.958 35.2196 185.294 35.6836V34.8436C185.294 34.4916 185.194 34.2196 184.994 34.0276C184.802 33.8356 184.526 33.7396 184.166 33.7396C183.638 33.7396 183.158 33.9596 182.726 34.3996L182.258 33.5596C182.818 32.9996 183.526 32.7196 184.382 32.7196C185.022 32.7196 185.53 32.8836 185.906 33.2116C186.29 33.5316 186.482 34.0276 186.482 34.6996V38.6596ZM184.202 37.9756C184.682 37.9756 185.046 37.7636 185.294 37.3396V36.4636C185.182 36.2636 185.026 36.1076 184.826 35.9956C184.626 35.8756 184.418 35.8156 184.202 35.8156C183.898 35.8156 183.654 35.9156 183.47 36.1156C183.286 36.3156 183.194 36.5756 183.194 36.8956C183.194 37.2156 183.286 37.4756 183.47 37.6756C183.654 37.8756 183.898 37.9756 184.202 37.9756ZM191.916 38.0236C191.5 38.5436 190.912 38.8036 190.152 38.8036C189.392 38.8036 188.776 38.5196 188.304 37.9516C187.84 37.3756 187.608 36.6436 187.608 35.7556C187.608 34.8676 187.84 34.1396 188.304 33.5716C188.768 33.0036 189.384 32.7196 190.152 32.7196C190.912 32.7196 191.5 32.9796 191.916 33.4996L191.304 34.3156C191.024 33.9556 190.68 33.7756 190.271 33.7756C189.832 33.7756 189.484 33.9636 189.228 34.3396C188.972 34.7156 188.844 35.1876 188.844 35.7556C188.844 36.3316 188.972 36.8076 189.228 37.1836C189.484 37.5596 189.832 37.7476 190.271 37.7476C190.672 37.7476 191.016 37.5676 191.304 37.2076L191.916 38.0236ZM194.076 38.6596H192.876V32.8636H194.076V35.1436H196.092V32.8636H197.28V38.6596H196.092V36.1876H194.076V38.6596ZM202.756 37.9276C202.316 38.5116 201.704 38.8036 200.92 38.8036C200.136 38.8036 199.52 38.5116 199.072 37.9276C198.632 37.3436 198.412 36.6196 198.412 35.7556C198.412 34.8916 198.632 34.1716 199.072 33.5956C199.512 33.0116 200.128 32.7196 200.92 32.7196C201.712 32.7196 202.328 33.0116 202.768 33.5956C203.208 34.1716 203.428 34.8916 203.428 35.7556C203.428 36.6196 203.204 37.3436 202.756 37.9276ZM199.972 37.1716C200.188 37.5556 200.504 37.7476 200.92 37.7476C201.336 37.7476 201.652 37.5556 201.868 37.1716C202.084 36.7876 202.192 36.3156 202.192 35.7556C202.192 35.1956 202.084 34.7276 201.868 34.3516C201.652 33.9676 201.336 33.7756 200.92 33.7756C200.504 33.7756 200.188 33.9676 199.972 34.3516C199.756 34.7276 199.648 35.1956 199.648 35.7556C199.648 36.3156 199.756 36.7876 199.972 37.1716ZM205.712 38.6596H204.344L205.592 36.3796C205.264 36.2916 204.988 36.1036 204.764 35.8156C204.54 35.5196 204.428 35.1436 204.428 34.6876C204.428 34.1596 204.6 33.7236 204.944 33.3796C205.288 33.0356 205.764 32.8636 206.372 32.8636H208.928V38.6596H207.728V36.5236H206.768L205.712 38.6596ZM206.516 35.5276H207.728V33.8596H206.516C206.244 33.8596 206.028 33.9356 205.868 34.0876C205.716 34.2396 205.64 34.4396 205.64 34.6876C205.64 34.9356 205.716 35.1396 205.868 35.2996C206.02 35.4516 206.236 35.5276 206.516 35.5276ZM214.573 37.9756C214.197 38.5276 213.685 38.8036 213.037 38.8036C212.389 38.8036 211.893 38.4956 211.549 37.8796V40.8676H210.349V32.8636H211.549V33.6316C211.717 33.3436 211.933 33.1196 212.197 32.9596C212.461 32.7996 212.741 32.7196 213.037 32.7196C213.693 32.7196 214.209 32.9916 214.585 33.5356C214.961 34.0796 215.149 34.8196 215.149 35.7556C215.149 36.6836 214.957 37.4236 214.573 37.9756ZM212.677 37.7476C213.077 37.7476 213.381 37.5636 213.589 37.1956C213.805 36.8196 213.913 36.3396 213.913 35.7556C213.913 35.1716 213.805 34.6956 213.589 34.3276C213.381 33.9596 213.077 33.7756 212.677 33.7756C212.453 33.7756 212.233 33.8516 212.017 34.0036C211.809 34.1556 211.653 34.3436 211.549 34.5676V36.9436C211.653 37.1676 211.809 37.3596 212.017 37.5196C212.233 37.6716 212.453 37.7476 212.677 37.7476ZM220.275 38.0236C219.859 38.5436 219.271 38.8036 218.511 38.8036C217.751 38.8036 217.135 38.5196 216.663 37.9516C216.199 37.3756 215.967 36.6436 215.967 35.7556C215.967 34.8676 216.199 34.1396 216.663 33.5716C217.127 33.0036 217.743 32.7196 218.511 32.7196C219.271 32.7196 219.859 32.9796 220.275 33.4996L219.663 34.3156C219.383 33.9556 219.039 33.7756 218.631 33.7756C218.191 33.7756 217.843 33.9636 217.587 34.3396C217.331 34.7156 217.203 35.1876 217.203 35.7556C217.203 36.3316 217.331 36.8076 217.587 37.1836C217.843 37.5596 218.191 37.7476 218.631 37.7476C219.031 37.7476 219.375 37.5676 219.663 37.2076L220.275 38.0236ZM225.903 38.6596H224.499L223.131 36.2356L222.435 37.1716V38.6596H221.235V32.8636H222.435V35.7076L224.475 32.8636H225.867L223.947 35.4676L225.903 38.6596Z" fill="#444444"/>
<circle cx="253.5" cy="55.6596" r="4" fill="#444444"/>
<path d="M233.659 72.6596H232.175V63.3216H233.729V69.3976L237.103 63.3216H238.671V72.6596H237.131V66.4156L233.659 72.6596ZM245.318 71.8616C244.88 72.5056 244.282 72.8276 243.526 72.8276C242.77 72.8276 242.192 72.4683 241.79 71.7496V75.2356H240.39V65.8976H241.79V66.7936C241.986 66.4576 242.238 66.1963 242.546 66.0096C242.854 65.823 243.181 65.7296 243.526 65.7296C244.292 65.7296 244.894 66.047 245.332 66.6816C245.771 67.3163 245.99 68.1796 245.99 69.2716C245.99 70.3543 245.766 71.2176 245.318 71.8616ZM243.106 71.5956C243.573 71.5956 243.928 71.381 244.17 70.9516C244.422 70.513 244.548 69.953 244.548 69.2716C244.548 68.5903 244.422 68.035 244.17 67.6056C243.928 67.1763 243.573 66.9616 243.106 66.9616C242.845 66.9616 242.588 67.0503 242.336 67.2276C242.094 67.405 241.912 67.6243 241.79 67.8856V70.6576C241.912 70.919 242.094 71.143 242.336 71.3296C242.588 71.507 242.845 71.5956 243.106 71.5956ZM252.727 72.6596H251.089L249.493 69.8316L248.681 70.9236V72.6596H247.281V65.8976H248.681V69.2156L251.061 65.8976H252.685L250.445 68.9356L252.727 72.6596ZM253.428 75.3056L253.638 74.0736C253.759 74.139 253.909 74.1716 254.086 74.1716C254.459 74.1716 254.716 73.985 254.856 73.6116L255.136 72.7996L252.868 65.8976H254.352L255.85 70.9796L257.362 65.8976H258.846L256.172 73.9336C255.995 74.475 255.743 74.853 255.416 75.0676C255.099 75.2916 254.688 75.4036 254.184 75.4036C253.895 75.4036 253.643 75.371 253.428 75.3056ZM262.033 72.6596H260.633V67.1156H259.107V65.8976H263.559V67.1156H262.033V72.6596ZM269.321 71.9176C268.835 72.5243 268.149 72.8276 267.263 72.8276C266.376 72.8276 265.657 72.4963 265.107 71.8336C264.565 71.1616 264.295 70.3076 264.295 69.2716C264.295 68.2356 264.565 67.3863 265.107 66.7236C265.648 66.061 266.367 65.7296 267.263 65.7296C268.149 65.7296 268.835 66.033 269.321 66.6396L268.607 67.5916C268.28 67.1716 267.879 66.9616 267.403 66.9616C266.889 66.9616 266.483 67.181 266.185 67.6196C265.886 68.0583 265.737 68.609 265.737 69.2716C265.737 69.9436 265.886 70.499 266.185 70.9376C266.483 71.3763 266.889 71.5956 267.403 71.5956C267.869 71.5956 268.271 71.3856 268.607 70.9656L269.321 71.9176ZM275.887 72.6596H274.249L272.653 69.8316L271.841 70.9236V72.6596H270.441V65.8976H271.841V69.2156L274.221 65.8976H275.845L273.605 68.9356L275.887 72.6596Z" fill="#444444"/>
<path d="M128.301 15.6596H126.761V7.67964H124.619V6.32164H130.443V7.67964H128.301V15.6596ZM135.228 14.8056C134.715 15.487 134.001 15.8276 133.086 15.8276C132.171 15.8276 131.453 15.487 130.93 14.8056C130.417 14.1243 130.16 13.2796 130.16 12.2716C130.16 11.2636 130.417 10.4236 130.93 9.75164C131.443 9.0703 132.162 8.72964 133.086 8.72964C134.01 8.72964 134.729 9.0703 135.242 9.75164C135.755 10.4236 136.012 11.2636 136.012 12.2716C136.012 13.2796 135.751 14.1243 135.228 14.8056ZM131.98 13.9236C132.232 14.3716 132.601 14.5956 133.086 14.5956C133.571 14.5956 133.94 14.3716 134.192 13.9236C134.444 13.4756 134.57 12.925 134.57 12.2716C134.57 11.6183 134.444 11.0723 134.192 10.6336C133.94 10.1856 133.571 9.96164 133.086 9.96164C132.601 9.96164 132.232 10.1856 131.98 10.6336C131.728 11.0723 131.602 11.6183 131.602 12.2716C131.602 12.925 131.728 13.4756 131.98 13.9236ZM143.982 15.6596H142.61V11.2496L140.944 15.6596H140.384L138.732 11.2496V15.6596H137.332V8.89764H139.124L140.664 12.9716L142.204 8.89764H143.982V15.6596ZM150.321 14.9176C149.835 15.5243 149.149 15.8276 148.263 15.8276C147.376 15.8276 146.657 15.4963 146.107 14.8336C145.565 14.1616 145.295 13.3076 145.295 12.2716C145.295 11.2356 145.565 10.3863 146.107 9.72364C146.648 9.06097 147.367 8.72964 148.263 8.72964C149.149 8.72964 149.835 9.03297 150.321 9.63964L149.607 10.5916C149.28 10.1716 148.879 9.96164 148.403 9.96164C147.889 9.96164 147.483 10.181 147.185 10.6196C146.886 11.0583 146.737 11.609 146.737 12.2716C146.737 12.9436 146.886 13.499 147.185 13.9376C147.483 14.3763 147.889 14.5956 148.403 14.5956C148.869 14.5956 149.271 14.3856 149.607 13.9656L150.321 14.9176ZM156.887 15.6596H155.249L153.653 12.8316L152.841 13.9236V15.6596H151.441V8.89764H152.841V12.2156L155.221 8.89764H156.845L154.605 11.9356L156.887 15.6596Z" fill="#444444"/>
<circle cx="140.5" cy="24.6596" r="4" fill="#444444"/>
<circle cx="21.5" cy="40.6596" r="4" fill="#444444"/>
<path d="M14.4476 56.4696C13.7849 57.375 12.8749 57.8276 11.7176 57.8276C10.5603 57.8276 9.64559 57.375 8.97359 56.4696C8.31093 55.5643 7.97959 54.407 7.97959 52.9976C7.97959 51.5883 8.31093 50.431 8.97359 49.5256C9.64559 48.6203 10.5603 48.1676 11.7176 48.1676C12.8749 48.1676 13.7849 48.6203 14.4476 49.5256C15.1196 50.431 15.4556 51.5883 15.4556 52.9976C15.4556 54.407 15.1196 55.5643 14.4476 56.4696ZM11.7176 56.4416C12.3896 56.4416 12.9169 56.1196 13.2996 55.4756C13.6823 54.8223 13.8736 53.9963 13.8736 52.9976C13.8736 51.9896 13.6823 51.1636 13.2996 50.5196C12.9169 49.8663 12.3896 49.5396 11.7176 49.5396C11.0363 49.5396 10.5043 49.8616 10.1216 50.5056C9.74826 51.1496 9.56159 51.9803 9.56159 52.9976C9.56159 54.0056 9.74826 54.8316 10.1216 55.4756C10.5043 56.1196 11.0363 56.4416 11.7176 56.4416ZM23.4819 57.6596H22.1099V53.2496L20.4439 57.6596H19.8839L18.2319 53.2496V57.6596H16.8319V50.8976H18.6239L20.1639 54.9716L21.7039 50.8976H23.4819V57.6596ZM29.8207 56.9176C29.3354 57.5243 28.6494 57.8276 27.7627 57.8276C26.876 57.8276 26.1574 57.4963 25.6067 56.8336C25.0654 56.1616 24.7947 55.3076 24.7947 54.2716C24.7947 53.2356 25.0654 52.3863 25.6067 51.7236C26.148 51.061 26.8667 50.7296 27.7627 50.7296C28.6494 50.7296 29.3354 51.033 29.8207 51.6396L29.1067 52.5916C28.78 52.1716 28.3787 51.9616 27.9027 51.9616C27.3894 51.9616 26.9834 52.181 26.6847 52.6196C26.386 53.0583 26.2367 53.609 26.2367 54.2716C26.2367 54.9436 26.386 55.499 26.6847 55.9376C26.9834 56.3763 27.3894 56.5956 27.9027 56.5956C28.3694 56.5956 28.7707 56.3856 29.1067 55.9656L29.8207 56.9176ZM36.3872 57.6596H34.7492L33.1532 54.8316L32.3412 55.9236V57.6596H30.9412V50.8976H32.3412V54.2156L34.7212 50.8976H36.3452L34.1052 53.9356L36.3872 57.6596Z" fill="#444444"/>
</svg>
