<svg width="127" height="88" viewBox="0 0 127 88" fill="none" xmlns="http://www.w3.org/2000/svg">
<circle cx="68.375" cy="4.09888" r="4" fill="#444444"/>
<path d="M27.6941 21.0989H26.1401V11.7609H29.3181C30.1955 11.7609 30.8721 12.0409 31.3481 12.6009C31.8335 13.1515 32.0761 13.8375 32.0761 14.6589C32.0761 15.4895 31.8335 16.1849 31.3481 16.7449C30.8721 17.2955 30.1955 17.5709 29.3181 17.5709H27.6941V21.0989ZM29.1361 16.1989C29.5468 16.1989 29.8735 16.0589 30.1161 15.7789C30.3681 15.4989 30.4941 15.1255 30.4941 14.6589C30.4941 14.1922 30.3681 13.8189 30.1161 13.5389C29.8735 13.2589 29.5468 13.1189 29.1361 13.1189H27.6941V16.1989H29.1361ZM37.7338 20.2449C37.2204 20.9262 36.5064 21.2669 35.5918 21.2669C34.6771 21.2669 33.9584 20.9262 33.4358 20.2449C32.9224 19.5635 32.6658 18.7189 32.6658 17.7109C32.6658 16.7029 32.9224 15.8629 33.4358 15.1909C33.9491 14.5095 34.6678 14.1689 35.5918 14.1689C36.5158 14.1689 37.2344 14.5095 37.7478 15.1909C38.2611 15.8629 38.5178 16.7029 38.5178 17.7109C38.5178 18.7189 38.2564 19.5635 37.7338 20.2449ZM34.4858 19.3629C34.7378 19.8109 35.1064 20.0349 35.5918 20.0349C36.0771 20.0349 36.4458 19.8109 36.6978 19.3629C36.9498 18.9149 37.0758 18.3642 37.0758 17.7109C37.0758 17.0575 36.9498 16.5115 36.6978 16.0729C36.4458 15.6249 36.0771 15.4009 35.5918 15.4009C35.1064 15.4009 34.7378 15.6249 34.4858 16.0729C34.2338 16.5115 34.1078 17.0575 34.1078 17.7109C34.1078 18.3642 34.2338 18.9149 34.4858 19.3629ZM44.5277 20.3569C44.0424 20.9635 43.3564 21.2669 42.4697 21.2669C41.5831 21.2669 40.8644 20.9355 40.3137 20.2729C39.7724 19.6009 39.5017 18.7469 39.5017 17.7109C39.5017 16.6749 39.7724 15.8255 40.3137 15.1629C40.8551 14.5002 41.5737 14.1689 42.4697 14.1689C43.3564 14.1689 44.0424 14.4722 44.5277 15.0789L43.8137 16.0309C43.4871 15.6109 43.0857 15.4009 42.6097 15.4009C42.0964 15.4009 41.6904 15.6202 41.3917 16.0589C41.0931 16.4975 40.9437 17.0482 40.9437 17.7109C40.9437 18.3829 41.0931 18.9382 41.3917 19.3769C41.6904 19.8155 42.0964 20.0349 42.6097 20.0349C43.0764 20.0349 43.4777 19.8249 43.8137 19.4049L44.5277 20.3569ZM48.0003 21.0989H46.6003V15.5549H45.0743V14.3369H49.5263V15.5549H48.0003V21.0989ZM55.3295 20.2449C54.8162 20.9262 54.1022 21.2669 53.1875 21.2669C52.2728 21.2669 51.5542 20.9262 51.0315 20.2449C50.5182 19.5635 50.2615 18.7189 50.2615 17.7109C50.2615 16.7029 50.5182 15.8629 51.0315 15.1909C51.5448 14.5095 52.2635 14.1689 53.1875 14.1689C54.1115 14.1689 54.8302 14.5095 55.3435 15.1909C55.8568 15.8629 56.1135 16.7029 56.1135 17.7109C56.1135 18.7189 55.8522 19.5635 55.3295 20.2449ZM52.0815 19.3629C52.3335 19.8109 52.7022 20.0349 53.1875 20.0349C53.6728 20.0349 54.0415 19.8109 54.2935 19.3629C54.5455 18.9149 54.6715 18.3642 54.6715 17.7109C54.6715 17.0575 54.5455 16.5115 54.2935 16.0729C54.0415 15.6249 53.6728 15.4009 53.1875 15.4009C52.7022 15.4009 52.3335 15.6249 52.0815 16.0729C51.8295 16.5115 51.7035 17.0575 51.7035 17.7109C51.7035 18.3642 51.8295 18.9149 52.0815 19.3629ZM60.6394 21.0989H57.4334V14.3369H60.5554C61.2181 14.3369 61.7221 14.5002 62.0674 14.8269C62.4221 15.1442 62.5994 15.5549 62.5994 16.0589C62.5994 16.4509 62.4921 16.7822 62.2774 17.0529C62.0721 17.3142 61.7921 17.4962 61.4374 17.5989C61.8108 17.6829 62.1188 17.8835 62.3614 18.2009C62.6041 18.5089 62.7254 18.8635 62.7254 19.2649C62.7254 19.8155 62.5481 20.2589 62.1934 20.5949C61.8481 20.9309 61.3301 21.0989 60.6394 21.0989ZM60.3454 19.9229C60.9801 19.9229 61.2974 19.6429 61.2974 19.0829C61.2974 18.8402 61.2134 18.6349 61.0454 18.4669C60.8868 18.2989 60.6534 18.2149 60.3454 18.2149H58.8334V19.9229H60.3454ZM60.2894 17.0529C60.8681 17.0529 61.1574 16.7962 61.1574 16.2829C61.1574 16.0495 61.0828 15.8629 60.9334 15.7229C60.7934 15.5735 60.5788 15.4989 60.2894 15.4989H58.8334V17.0529H60.2894ZM66.7757 18.3129H63.8497V17.1089H66.7757V18.3129ZM69.4155 21.0989H68.0155V14.3369H69.4155V16.9969H71.7675V14.3369H73.1535V21.0989H71.7675V18.2149H69.4155V21.0989ZM79.6964 21.0989H78.3104V20.4129C77.8997 20.9822 77.307 21.2669 76.5324 21.2669C75.9537 21.2669 75.4637 21.0662 75.0624 20.6649C74.661 20.2542 74.4604 19.7035 74.4604 19.0129C74.4604 18.3222 74.661 17.7855 75.0624 17.4029C75.4637 17.0109 75.9537 16.8149 76.5324 16.8149C77.3257 16.8149 77.9184 17.0855 78.3104 17.6269V16.6469C78.3104 16.2362 78.1937 15.9189 77.9604 15.6949C77.7364 15.4709 77.4144 15.3589 76.9944 15.3589C76.3784 15.3589 75.8184 15.6155 75.3144 16.1289L74.7684 15.1489C75.4217 14.4955 76.2477 14.1689 77.2464 14.1689C77.993 14.1689 78.5857 14.3602 79.0244 14.7429C79.4724 15.1162 79.6964 15.6949 79.6964 16.4789V21.0989ZM77.0364 20.3009C77.5964 20.3009 78.021 20.0535 78.3104 19.5589V18.5369C78.1797 18.3035 77.9977 18.1215 77.7644 17.9909C77.531 17.8509 77.2884 17.7809 77.0364 17.7809C76.6817 17.7809 76.397 17.8975 76.1824 18.1309C75.9677 18.3642 75.8604 18.6675 75.8604 19.0409C75.8604 19.4142 75.9677 19.7175 76.1824 19.9509C76.397 20.1842 76.6817 20.3009 77.0364 20.3009ZM83.8655 18.3129H80.9395V17.1089H83.8655V18.3129ZM84.6013 22.8209V19.8809C84.9186 19.8342 85.1566 19.7455 85.3153 19.6149C85.474 19.4842 85.628 19.1762 85.7773 18.6909C85.9266 18.2055 86.0433 17.4822 86.1273 16.5209L86.5613 11.7609H91.6993V19.7269H92.5253V22.8209H90.9713V21.0989H86.1413V22.8209H84.6013ZM87.6673 16.6329C87.5366 18.0515 87.1866 19.0829 86.6173 19.7269H90.1453V13.1189H87.9753L87.6673 16.6329ZM98.2865 20.2449C97.7732 20.9262 97.0592 21.2669 96.1445 21.2669C95.2298 21.2669 94.5112 20.9262 93.9885 20.2449C93.4752 19.5635 93.2185 18.7189 93.2185 17.7109C93.2185 16.7029 93.4752 15.8629 93.9885 15.1909C94.5018 14.5095 95.2205 14.1689 96.1445 14.1689C97.0685 14.1689 97.7872 14.5095 98.3005 15.1909C98.8138 15.8629 99.0705 16.7029 99.0705 17.7109C99.0705 18.7189 98.8092 19.5635 98.2865 20.2449ZM95.0385 19.3629C95.2905 19.8109 95.6592 20.0349 96.1445 20.0349C96.6298 20.0349 96.9985 19.8109 97.2505 19.3629C97.5025 18.9149 97.6285 18.3642 97.6285 17.7109C97.6285 17.0575 97.5025 16.5115 97.2505 16.0729C96.9985 15.6249 96.6298 15.4009 96.1445 15.4009C95.6592 15.4009 95.2905 15.6249 95.0385 16.0729C94.7865 16.5115 94.6605 17.0575 94.6605 17.7109C94.6605 18.3642 94.7865 18.9149 95.0385 19.3629ZM101.79 21.0989H100.39V14.3369H101.79V16.9969H104.142V14.3369H105.528V21.0989H104.142V18.2149H101.79V21.0989ZM106.947 23.7449L107.157 22.5129C107.279 22.5782 107.428 22.6109 107.605 22.6109C107.979 22.6109 108.235 22.4242 108.375 22.0509L108.655 21.2389L106.387 14.3369H107.871L109.369 19.4189L110.881 14.3369H112.365L109.691 22.3729C109.514 22.9142 109.262 23.2922 108.935 23.5069C108.618 23.7309 108.207 23.8429 107.703 23.8429C107.414 23.8429 107.162 23.8102 106.947 23.7449Z" fill="#444444"/>
<circle cx="36.875" cy="63.4963" r="4" fill="#444444"/>
<path d="M14.0775 80.4963H12.2435L9.83555 76.6463L9.13555 77.7103V80.4963H7.58155V71.1583H9.13555V75.6523L12.0335 71.1583H13.8535L10.8015 75.5683L14.0775 80.4963ZM19.9317 79.6983C19.4931 80.3423 18.8957 80.6643 18.1397 80.6643C17.3837 80.6643 16.8051 80.305 16.4037 79.5863V83.0723H15.0037V73.7343H16.4037V74.6303C16.5997 74.2943 16.8517 74.033 17.1597 73.8463C17.4677 73.6597 17.7944 73.5663 18.1397 73.5663C18.9051 73.5663 19.5071 73.8837 19.9457 74.5183C20.3844 75.153 20.6037 76.0163 20.6037 77.1083C20.6037 78.191 20.3797 79.0543 19.9317 79.6983ZM17.7197 79.4323C18.1864 79.4323 18.5411 79.2177 18.7837 78.7883C19.0357 78.3497 19.1617 77.7897 19.1617 77.1083C19.1617 76.427 19.0357 75.8717 18.7837 75.4423C18.5411 75.013 18.1864 74.7983 17.7197 74.7983C17.4584 74.7983 17.2017 74.887 16.9497 75.0643C16.7071 75.2417 16.5251 75.461 16.4037 75.7223V78.4943C16.5251 78.7557 16.7071 78.9797 16.9497 79.1663C17.2017 79.3437 17.4584 79.4323 17.7197 79.4323ZM26.7804 80.4963H25.3944V79.8103C24.9837 80.3797 24.391 80.6643 23.6164 80.6643C23.0377 80.6643 22.5477 80.4637 22.1464 80.0623C21.745 79.6517 21.5444 79.101 21.5444 78.4103C21.5444 77.7197 21.745 77.183 22.1464 76.8003C22.5477 76.4083 23.0377 76.2123 23.6164 76.2123C24.4097 76.2123 25.0024 76.483 25.3944 77.0243V76.0443C25.3944 75.6337 25.2777 75.3163 25.0444 75.0923C24.8204 74.8683 24.4984 74.7563 24.0784 74.7563C23.4624 74.7563 22.9024 75.013 22.3984 75.5263L21.8524 74.5463C22.5057 73.893 23.3317 73.5663 24.3304 73.5663C25.077 73.5663 25.6697 73.7577 26.1084 74.1403C26.5564 74.5137 26.7804 75.0923 26.7804 75.8763V80.4963ZM24.1204 79.6983C24.6804 79.6983 25.105 79.451 25.3944 78.9563V77.9343C25.2637 77.701 25.0817 77.519 24.8484 77.3883C24.615 77.2483 24.3724 77.1783 24.1204 77.1783C23.7657 77.1783 23.481 77.295 23.2664 77.5283C23.0517 77.7617 22.9444 78.065 22.9444 78.4383C22.9444 78.8117 23.0517 79.115 23.2664 79.3483C23.481 79.5817 23.7657 79.6983 24.1204 79.6983ZM33.1195 79.7543C32.6342 80.361 31.9482 80.6643 31.0615 80.6643C30.1748 80.6643 29.4562 80.333 28.9055 79.6703C28.3642 78.9983 28.0935 78.1443 28.0935 77.1083C28.0935 76.0723 28.3642 75.223 28.9055 74.5603C29.4468 73.8977 30.1655 73.5663 31.0615 73.5663C31.9482 73.5663 32.6342 73.8697 33.1195 74.4763L32.4055 75.4283C32.0788 75.0083 31.6775 74.7983 31.2015 74.7983C30.6882 74.7983 30.2822 75.0177 29.9835 75.4563C29.6848 75.895 29.5355 76.4457 29.5355 77.1083C29.5355 77.7803 29.6848 78.3357 29.9835 78.7743C30.2822 79.213 30.6882 79.4323 31.2015 79.4323C31.6682 79.4323 32.0695 79.2223 32.4055 78.8023L33.1195 79.7543ZM35.6401 80.4963H34.2401V73.7343H35.6401V76.3943H37.9921V73.7343H39.3781V80.4963H37.9921V77.6123H35.6401V80.4963ZM45.767 79.6423C45.2537 80.3237 44.5397 80.6643 43.625 80.6643C42.7103 80.6643 41.9917 80.3237 41.469 79.6423C40.9557 78.961 40.699 78.1163 40.699 77.1083C40.699 76.1003 40.9557 75.2603 41.469 74.5883C41.9823 73.907 42.701 73.5663 43.625 73.5663C44.549 73.5663 45.2677 73.907 45.781 74.5883C46.2943 75.2603 46.551 76.1003 46.551 77.1083C46.551 78.1163 46.2897 78.961 45.767 79.6423ZM42.519 78.7603C42.771 79.2083 43.1397 79.4323 43.625 79.4323C44.1103 79.4323 44.479 79.2083 44.731 78.7603C44.983 78.3123 45.109 77.7617 45.109 77.1083C45.109 76.455 44.983 75.909 44.731 75.4703C44.479 75.0223 44.1103 74.7983 43.625 74.7983C43.1397 74.7983 42.771 75.0223 42.519 75.4703C42.267 75.909 42.141 76.455 42.141 77.1083C42.141 77.7617 42.267 78.3123 42.519 78.7603ZM47.2969 82.2183V79.3903C47.6143 79.325 47.8476 79.1617 47.9969 78.9003C48.1463 78.639 48.2583 78.0977 48.3329 77.2763L48.6409 73.7343H53.0089V79.2783H53.7369V82.2183H52.3369V80.4963H48.6829V82.2183H47.2969ZM49.9149 74.9523L49.7329 77.3883C49.6676 78.2283 49.4156 78.8583 48.9769 79.2783H51.6229V74.9523H49.9149ZM59.6612 80.4963H58.2752V79.8103C57.8646 80.3797 57.2719 80.6643 56.4972 80.6643C55.9186 80.6643 55.4286 80.4637 55.0272 80.0623C54.6259 79.6517 54.4252 79.101 54.4252 78.4103C54.4252 77.7197 54.6259 77.183 55.0272 76.8003C55.4286 76.4083 55.9186 76.2123 56.4972 76.2123C57.2906 76.2123 57.8832 76.483 58.2752 77.0243V76.0443C58.2752 75.6337 58.1586 75.3163 57.9252 75.0923C57.7012 74.8683 57.3792 74.7563 56.9592 74.7563C56.3432 74.7563 55.7832 75.013 55.2792 75.5263L54.7332 74.5463C55.3866 73.893 56.2126 73.5663 57.2112 73.5663C57.9579 73.5663 58.5506 73.7577 58.9892 74.1403C59.4372 74.5137 59.6612 75.0923 59.6612 75.8763V80.4963ZM57.0012 79.6983C57.5612 79.6983 57.9859 79.451 58.2752 78.9563V77.9343C58.1446 77.701 57.9626 77.519 57.7292 77.3883C57.4959 77.2483 57.2532 77.1783 57.0012 77.1783C56.6466 77.1783 56.3619 77.295 56.1472 77.5283C55.9326 77.7617 55.8252 78.065 55.8252 78.4383C55.8252 78.8117 55.9326 79.115 56.1472 79.3483C56.3619 79.5817 56.6466 79.6983 57.0012 79.6983ZM66.2384 79.6983C65.7997 80.3423 65.2024 80.6643 64.4464 80.6643C63.6904 80.6643 63.1117 80.305 62.7104 79.5863V83.0723H61.3104V73.7343H62.7104V74.6303C62.9064 74.2943 63.1584 74.033 63.4664 73.8463C63.7744 73.6597 64.101 73.5663 64.4464 73.5663C65.2117 73.5663 65.8137 73.8837 66.2524 74.5183C66.691 75.153 66.9104 76.0163 66.9104 77.1083C66.9104 78.191 66.6864 79.0543 66.2384 79.6983ZM64.0264 79.4323C64.493 79.4323 64.8477 79.2177 65.0904 78.7883C65.3424 78.3497 65.4684 77.7897 65.4684 77.1083C65.4684 76.427 65.3424 75.8717 65.0904 75.4423C64.8477 75.013 64.493 74.7983 64.0264 74.7983C63.765 74.7983 63.5084 74.887 63.2564 75.0643C63.0137 75.2417 62.8317 75.461 62.7104 75.7223V78.4943C62.8317 78.7557 63.0137 78.9797 63.2564 79.1663C63.5084 79.3437 63.765 79.4323 64.0264 79.4323Z" fill="#444444"/>
<circle cx="95.5" cy="45.4963" r="4" fill="#444444"/>
<path d="M74.3919 61.4963H71.2719V53.4923H74.2959C74.9519 53.4923 75.4599 53.6843 75.8199 54.0683C76.1799 54.4523 76.3599 54.9403 76.3599 55.5323C76.3599 56.0203 76.2399 56.4243 75.9999 56.7443C75.7679 57.0563 75.4679 57.2643 75.0999 57.3683C75.4919 57.4243 75.8199 57.6443 76.0839 58.0283C76.3559 58.4043 76.4919 58.8403 76.4919 59.3363C76.4919 59.9843 76.3119 60.5083 75.9519 60.9083C75.5919 61.3003 75.0719 61.4963 74.3919 61.4963ZM74.0079 56.8283C74.3359 56.8283 74.5799 56.7323 74.7399 56.5403C74.9079 56.3403 74.9919 56.0763 74.9919 55.7483C74.9919 55.4203 74.9079 55.1563 74.7399 54.9563C74.5719 54.7563 74.3279 54.6563 74.0079 54.6563H72.6039V56.8283H74.0079ZM74.0559 60.3203C74.4079 60.3203 74.6719 60.2203 74.8479 60.0203C75.0319 59.8123 75.1239 59.5243 75.1239 59.1563C75.1239 58.8203 75.0319 58.5443 74.8479 58.3283C74.6639 58.1123 74.3999 58.0043 74.0559 58.0043H72.6039V60.3203H74.0559ZM81.7484 60.7643C81.3084 61.3483 80.6964 61.6403 79.9124 61.6403C79.1284 61.6403 78.5124 61.3483 78.0644 60.7643C77.6244 60.1803 77.4044 59.4563 77.4044 58.5923C77.4044 57.7283 77.6244 57.0083 78.0644 56.4323C78.5044 55.8483 79.1204 55.5563 79.9124 55.5563C80.7044 55.5563 81.3204 55.8483 81.7604 56.4323C82.2004 57.0083 82.4204 57.7283 82.4204 58.5923C82.4204 59.4563 82.1964 60.1803 81.7484 60.7643ZM78.9644 60.0083C79.1804 60.3923 79.4964 60.5843 79.9124 60.5843C80.3284 60.5843 80.6444 60.3923 80.8604 60.0083C81.0764 59.6243 81.1844 59.1523 81.1844 58.5923C81.1844 58.0323 81.0764 57.5643 80.8604 57.1883C80.6444 56.8043 80.3284 56.6123 79.9124 56.6123C79.4964 56.6123 79.1804 56.8043 78.9644 57.1883C78.7484 57.5643 78.6404 58.0323 78.6404 58.5923C78.6404 59.1523 78.7484 59.6243 78.9644 60.0083ZM83.0598 61.6403V60.6203C83.3078 60.6203 83.4998 60.4883 83.6357 60.2243C83.7798 59.9603 83.8838 59.4643 83.9478 58.7363L84.2118 55.7003H87.9558V61.4963H86.7678V56.7443H85.3038L85.1478 58.8323C85.0678 59.8563 84.8558 60.5803 84.5118 61.0043C84.1678 61.4283 83.6838 61.6403 83.0598 61.6403ZM92.976 55.7003V56.7443H90.576V61.4963H89.376V55.7003H92.976ZM97.9554 60.7643C97.5154 61.3483 96.9034 61.6403 96.1194 61.6403C95.3354 61.6403 94.7194 61.3483 94.2714 60.7643C93.8314 60.1803 93.6114 59.4563 93.6114 58.5923C93.6114 57.7283 93.8314 57.0083 94.2714 56.4323C94.7114 55.8483 95.3274 55.5563 96.1194 55.5563C96.9114 55.5563 97.5274 55.8483 97.9674 56.4323C98.4074 57.0083 98.6274 57.7283 98.6274 58.5923C98.6274 59.4563 98.4034 60.1803 97.9554 60.7643ZM95.1714 60.0083C95.3874 60.3923 95.7034 60.5843 96.1194 60.5843C96.5354 60.5843 96.8514 60.3923 97.0674 60.0083C97.2834 59.6243 97.3914 59.1523 97.3914 58.5923C97.3914 58.0323 97.2834 57.5643 97.0674 57.1883C96.8514 56.8043 96.5354 56.6123 96.1194 56.6123C95.7034 56.6123 95.3874 56.8043 95.1714 57.1883C94.9554 57.5643 94.8474 58.0323 94.8474 58.5923C94.8474 59.1523 94.9554 59.6243 95.1714 60.0083ZM103.359 55.7003V56.7443H100.959V61.4963H99.7588V55.7003H103.359ZM108.506 60.8123C108.13 61.3643 107.618 61.6403 106.97 61.6403C106.322 61.6403 105.826 61.3323 105.482 60.7163V63.7043H104.282V55.7003H105.482V56.4683C105.65 56.1803 105.866 55.9563 106.13 55.7963C106.394 55.6363 106.674 55.5563 106.97 55.5563C107.626 55.5563 108.142 55.8283 108.518 56.3723C108.894 56.9163 109.082 57.6563 109.082 58.5923C109.082 59.5203 108.89 60.2603 108.506 60.8123ZM106.61 60.5843C107.01 60.5843 107.314 60.4003 107.522 60.0323C107.738 59.6563 107.846 59.1763 107.846 58.5923C107.846 58.0083 107.738 57.5323 107.522 57.1643C107.314 56.7963 107.01 56.6123 106.61 56.6123C106.386 56.6123 106.166 56.6883 105.95 56.8403C105.742 56.9923 105.586 57.1803 105.482 57.4043V59.7803C105.586 60.0043 105.742 60.1963 105.95 60.3563C106.166 60.5083 106.386 60.5843 106.61 60.5843ZM114.376 61.4963H113.188V60.9083C112.836 61.3963 112.328 61.6403 111.664 61.6403C111.168 61.6403 110.748 61.4683 110.404 61.1243C110.06 60.7723 109.888 60.3003 109.888 59.7083C109.888 59.1163 110.06 58.6563 110.404 58.3283C110.748 57.9923 111.168 57.8243 111.664 57.8243C112.344 57.8243 112.852 58.0563 113.188 58.5203V57.6803C113.188 57.3283 113.088 57.0563 112.888 56.8643C112.696 56.6723 112.42 56.5763 112.06 56.5763C111.532 56.5763 111.052 56.7963 110.62 57.2363L110.152 56.3963C110.712 55.8363 111.42 55.5563 112.276 55.5563C112.916 55.5563 113.424 55.7203 113.8 56.0483C114.184 56.3683 114.376 56.8643 114.376 57.5363V61.4963ZM112.096 60.8123C112.576 60.8123 112.94 60.6003 113.188 60.1763V59.3003C113.076 59.1003 112.92 58.9443 112.72 58.8323C112.52 58.7123 112.312 58.6523 112.096 58.6523C111.792 58.6523 111.548 58.7523 111.364 58.9523C111.18 59.1523 111.088 59.4123 111.088 59.7323C111.088 60.0523 111.18 60.3123 111.364 60.5123C111.548 60.7123 111.792 60.8123 112.096 60.8123ZM115.298 62.9723V60.5483C115.57 60.4923 115.77 60.3523 115.898 60.1283C116.026 59.9043 116.122 59.4403 116.186 58.7363L116.45 55.7003H120.194V60.4523H120.818V62.9723H119.618V61.4963H116.486V62.9723H115.298ZM117.542 56.7443L117.386 58.8323C117.33 59.5523 117.114 60.0923 116.738 60.4523H119.006V56.7443H117.542Z" fill="#444444"/>
</svg>
