<svg width="174" height="102" viewBox="0 0 174 102" fill="none" xmlns="http://www.w3.org/2000/svg">
<circle cx="39.8984" cy="43.0988" r="4" fill="#444444"/>
<path d="M12.3628 59.0988H7.98284V51.0948H12.3628V52.2588H9.31484V54.4308H12.2788V55.6068H9.31484V57.9228H12.3628V59.0988ZM18.251 59.0988H16.847L15.479 56.6748L14.783 57.6108V59.0988H13.583V53.3028H14.783V56.1468L16.823 53.3028H18.215L16.295 55.9068L18.251 59.0988ZM23.2437 59.0988H22.0557V58.5108C21.7037 58.9988 21.1957 59.2428 20.5317 59.2428C20.0357 59.2428 19.6157 59.0708 19.2717 58.7268C18.9277 58.3748 18.7557 57.9028 18.7557 57.3108C18.7557 56.7188 18.9277 56.2588 19.2717 55.9308C19.6157 55.5948 20.0357 55.4268 20.5317 55.4268C21.2117 55.4268 21.7197 55.6588 22.0557 56.1228V55.2828C22.0557 54.9308 21.9557 54.6588 21.7557 54.4668C21.5637 54.2748 21.2877 54.1788 20.9277 54.1788C20.3997 54.1788 19.9197 54.3988 19.4877 54.8388L19.0197 53.9988C19.5797 53.4388 20.2877 53.1588 21.1437 53.1588C21.7837 53.1588 22.2917 53.3228 22.6677 53.6508C23.0517 53.9708 23.2437 54.4668 23.2437 55.1388V59.0988ZM20.9637 58.4148C21.4437 58.4148 21.8077 58.2028 22.0557 57.7788V56.9028C21.9437 56.7028 21.7877 56.5468 21.5877 56.4348C21.3877 56.3148 21.1797 56.2548 20.9637 56.2548C20.6597 56.2548 20.4157 56.3548 20.2317 56.5548C20.0477 56.7548 19.9557 57.0148 19.9557 57.3348C19.9557 57.6548 20.0477 57.9148 20.2317 58.1148C20.4157 58.3148 20.6597 58.4148 20.9637 58.4148ZM26.6732 59.0988H25.4732V54.3468H24.1652V53.3028H27.9812V54.3468H26.6732V59.0988ZM31.2154 59.2428C30.4234 59.2428 29.7914 58.9628 29.3194 58.4028C28.8474 57.8428 28.6114 57.1068 28.6114 56.1948C28.6114 55.3308 28.8354 54.6108 29.2834 54.0348C29.7394 53.4508 30.3434 53.1588 31.0954 53.1588C31.8554 53.1588 32.4474 53.4468 32.8714 54.0228C33.2954 54.5988 33.5074 55.3388 33.5074 56.2428V56.5908H29.8234C29.8474 57.0868 29.9914 57.4908 30.2554 57.8028C30.5194 58.1068 30.8794 58.2588 31.3354 58.2588C31.8554 58.2588 32.2914 58.0508 32.6434 57.6348L33.2194 58.3548C32.6994 58.9468 32.0314 59.2428 31.2154 59.2428ZM32.3434 55.7388C32.3354 55.3148 32.2274 54.9428 32.0194 54.6228C31.8194 54.2948 31.5074 54.1308 31.0834 54.1308C30.6754 54.1308 30.3674 54.2948 30.1594 54.6228C29.9514 54.9508 29.8354 55.3228 29.8114 55.7388H32.3434ZM38.807 58.4148C38.431 58.9668 37.919 59.2428 37.271 59.2428C36.623 59.2428 36.127 58.9348 35.783 58.3188V61.3068H34.583V53.3028H35.783V54.0708C35.951 53.7828 36.167 53.5588 36.431 53.3988C36.695 53.2388 36.975 53.1588 37.271 53.1588C37.927 53.1588 38.443 53.4308 38.819 53.9748C39.195 54.5188 39.383 55.2588 39.383 56.1948C39.383 57.1228 39.191 57.8628 38.807 58.4148ZM36.911 58.1868C37.311 58.1868 37.615 58.0028 37.823 57.6348C38.039 57.2588 38.147 56.7788 38.147 56.1948C38.147 55.6108 38.039 55.1348 37.823 54.7668C37.615 54.3988 37.311 54.2148 36.911 54.2148C36.687 54.2148 36.467 54.2908 36.251 54.4428C36.043 54.5948 35.887 54.7828 35.783 55.0068V57.3828C35.887 57.6068 36.043 57.7988 36.251 57.9588C36.467 58.1108 36.687 58.1868 36.911 58.1868ZM41.6533 59.0988H40.4893V53.3028H41.6893V56.9388L43.6693 53.3028H44.8933V59.0988H43.7053V55.3428L41.6533 59.0988ZM47.5135 59.0988H46.3135V53.3028H47.5135V55.5828H49.5295V53.3028H50.7175V59.0988H49.5295V56.6268H47.5135V59.0988ZM54.3457 58.1868C54.7617 58.1868 55.0777 57.9948 55.2937 57.6108C55.5097 57.2188 55.6177 56.7388 55.6177 56.1708C55.6177 55.6268 55.5097 55.1668 55.2937 54.7908C55.0777 54.4068 54.7617 54.2148 54.3457 54.2148C53.9377 54.2148 53.6257 54.4068 53.4097 54.7908C53.1937 55.1668 53.0857 55.6268 53.0857 56.1708C53.0857 56.7388 53.1937 57.2188 53.4097 57.6108C53.6257 57.9948 53.9377 58.1868 54.3457 58.1868ZM54.3457 59.2428C53.5457 59.2428 52.9297 58.9388 52.4977 58.3308C52.0657 57.7148 51.8497 56.9148 51.8497 55.9308C51.8497 54.4508 52.0297 53.4068 52.3897 52.7988C52.7577 52.1908 53.4137 51.8068 54.3577 51.6468C54.7817 51.5748 55.0737 51.4988 55.2337 51.4188C55.4017 51.3388 55.4857 51.2308 55.4857 51.0948H56.6737C56.6737 51.3588 56.6097 51.5908 56.4817 51.7908C56.3537 51.9828 56.1737 52.1348 55.9417 52.2468C55.7177 52.3588 55.5097 52.4428 55.3177 52.4988C55.1257 52.5548 54.9057 52.6028 54.6577 52.6428C53.5537 52.8188 52.9537 53.2948 52.8577 54.0708C53.0257 53.7908 53.2577 53.5708 53.5537 53.4108C53.8497 53.2428 54.1817 53.1588 54.5497 53.1588C55.2617 53.1588 55.8217 53.4508 56.2297 54.0348C56.6457 54.6188 56.8537 55.3348 56.8537 56.1828C56.8537 57.0388 56.6337 57.7628 56.1937 58.3548C55.7537 58.9468 55.1377 59.2428 54.3457 59.2428ZM57.8165 61.3668L57.9965 60.3108C58.1005 60.3668 58.2285 60.3948 58.3805 60.3948C58.7005 60.3948 58.9205 60.2348 59.0405 59.9148L59.2805 59.2188L57.3365 53.3028H58.6085L59.8925 57.6588L61.1885 53.3028H62.4605L60.1685 60.1908C60.0165 60.6548 59.8005 60.9788 59.5205 61.1628C59.2485 61.3548 58.8965 61.4508 58.4645 61.4508C58.2165 61.4508 58.0005 61.4228 57.8165 61.3668ZM67.4008 58.4148C67.0248 58.9668 66.5128 59.2428 65.8648 59.2428C65.2168 59.2428 64.7208 58.9348 64.3768 58.3188V61.3068H63.1768V53.3028H64.3768V54.0708C64.5448 53.7828 64.7608 53.5588 65.0248 53.3988C65.2888 53.2388 65.5688 53.1588 65.8648 53.1588C66.5208 53.1588 67.0368 53.4308 67.4128 53.9748C67.7888 54.5188 67.9768 55.2588 67.9768 56.1948C67.9768 57.1228 67.7848 57.8628 67.4008 58.4148ZM65.5048 58.1868C65.9048 58.1868 66.2088 58.0028 66.4168 57.6348C66.6328 57.2588 66.7408 56.7788 66.7408 56.1948C66.7408 55.6108 66.6328 55.1348 66.4168 54.7668C66.2088 54.3988 65.9048 54.2148 65.5048 54.2148C65.2808 54.2148 65.0608 54.2908 64.8448 54.4428C64.6368 54.5948 64.4808 54.7828 64.3768 55.0068V57.3828C64.4808 57.6068 64.6368 57.7988 64.8448 57.9588C65.0608 58.1108 65.2808 58.1868 65.5048 58.1868ZM72.683 53.3028V54.3468H70.283V59.0988H69.083V53.3028H72.683Z" fill="#444444"/>
<circle cx="98.5" cy="14.0988" r="4" fill="#444444"/>
<path d="M87.8751 31.0988H86.3211V23.1188H82.9051V31.0988H81.3511V21.7608H87.8751V31.0988ZM92.2819 31.2668C91.3579 31.2668 90.6206 30.9402 90.0699 30.2868C89.5192 29.6335 89.2439 28.7748 89.2439 27.7108C89.2439 26.7028 89.5052 25.8628 90.0279 25.1908C90.5599 24.5095 91.2646 24.1688 92.1419 24.1688C93.0286 24.1688 93.7192 24.5048 94.2139 25.1768C94.7086 25.8488 94.9559 26.7122 94.9559 27.7668V28.1728H90.6579C90.6859 28.7515 90.8539 29.2228 91.1619 29.5868C91.4699 29.9415 91.8899 30.1188 92.4219 30.1188C93.0286 30.1188 93.5372 29.8762 93.9479 29.3908L94.6199 30.2308C94.0132 30.9215 93.2339 31.2668 92.2819 31.2668ZM93.5979 27.1788C93.5886 26.6842 93.4626 26.2502 93.2199 25.8768C92.9866 25.4942 92.6226 25.3028 92.1279 25.3028C91.6519 25.3028 91.2926 25.4942 91.0499 25.8768C90.8072 26.2595 90.6719 26.6935 90.6439 27.1788H93.5979ZM101.139 30.3008C100.7 30.9448 100.103 31.2668 99.3468 31.2668C98.5908 31.2668 98.0121 30.9075 97.6108 30.1888V33.6748H96.2108V24.3368H97.6108V25.2328C97.8068 24.8968 98.0588 24.6355 98.3668 24.4488C98.6748 24.2622 99.0014 24.1688 99.3468 24.1688C100.112 24.1688 100.714 24.4862 101.153 25.1208C101.591 25.7555 101.811 26.6188 101.811 27.7108C101.811 28.7935 101.587 29.6568 101.139 30.3008ZM98.9268 30.0348C99.3934 30.0348 99.7481 29.8202 99.9908 29.3908C100.243 28.9522 100.369 28.3922 100.369 27.7108C100.369 27.0295 100.243 26.4742 99.9908 26.0448C99.7481 25.6155 99.3934 25.4008 98.9268 25.4008C98.6654 25.4008 98.4088 25.4895 98.1568 25.6668C97.9141 25.8442 97.7321 26.0635 97.6108 26.3248V29.0968C97.7321 29.3582 97.9141 29.5822 98.1568 29.7688C98.4088 29.9462 98.6654 30.0348 98.9268 30.0348ZM109.751 31.0988H108.379V26.6888L106.713 31.0988H106.153L104.501 26.6888V31.0988H103.101V24.3368H104.893L106.433 28.4108L107.973 24.3368H109.751V31.0988ZM111.4 24.3368H112.8V26.8148H114.298C115.036 26.8148 115.596 27.0202 115.978 27.4308C116.37 27.8415 116.566 28.3548 116.566 28.9708C116.566 29.5775 116.366 30.0862 115.964 30.4968C115.572 30.8982 115.017 31.0988 114.298 31.0988H111.4V24.3368ZM114.13 27.9908H112.8V29.9228H114.13C114.448 29.9228 114.695 29.8342 114.872 29.6568C115.05 29.4795 115.138 29.2462 115.138 28.9568C115.138 28.6768 115.05 28.4482 114.872 28.2708C114.695 28.0842 114.448 27.9908 114.13 27.9908Z" fill="#444444"/>
<circle cx="152" cy="26.0988" r="4" fill="#444444"/>
<path d="M140.255 42.2428C139.263 42.2428 138.471 41.8588 137.879 41.0908C137.287 40.3148 136.991 39.3188 136.991 38.1028C136.991 36.8788 137.287 35.8828 137.879 35.1148C138.471 34.3468 139.263 33.9628 140.255 33.9628C141.383 33.9628 142.227 34.5508 142.787 35.7268L141.683 36.2188C141.371 35.4988 140.895 35.1388 140.255 35.1388C139.679 35.1388 139.215 35.4148 138.863 35.9668C138.519 36.5188 138.347 37.2308 138.347 38.1028C138.347 38.9668 138.519 39.6748 138.863 40.2268C139.215 40.7788 139.679 41.0548 140.255 41.0548C140.591 41.0548 140.879 40.9468 141.119 40.7308C141.367 40.5148 141.559 40.2308 141.695 39.8788L142.799 40.3708C142.255 41.6188 141.407 42.2428 140.255 42.2428ZM143.52 44.3668L143.7 43.3108C143.804 43.3668 143.932 43.3948 144.084 43.3948C144.404 43.3948 144.624 43.2348 144.744 42.9148L144.984 42.2188L143.04 36.3028H144.312L145.596 40.6588L146.892 36.3028H148.164L145.872 43.1908C145.72 43.6548 145.504 43.9788 145.224 44.1628C144.952 44.3548 144.6 44.4508 144.168 44.4508C143.92 44.4508 143.704 44.4228 143.52 44.3668ZM153.104 41.4148C152.728 41.9668 152.216 42.2428 151.568 42.2428C150.92 42.2428 150.424 41.9348 150.08 41.3188V44.3068H148.88V36.3028H150.08V37.0708C150.248 36.7828 150.464 36.5588 150.728 36.3988C150.992 36.2388 151.272 36.1588 151.568 36.1588C152.224 36.1588 152.74 36.4308 153.116 36.9748C153.492 37.5188 153.68 38.2588 153.68 39.1948C153.68 40.1228 153.488 40.8628 153.104 41.4148ZM151.208 41.1868C151.608 41.1868 151.912 41.0028 152.12 40.6348C152.336 40.2588 152.444 39.7788 152.444 39.1948C152.444 38.6108 152.336 38.1348 152.12 37.7668C151.912 37.3988 151.608 37.2148 151.208 37.2148C150.984 37.2148 150.764 37.2908 150.548 37.4428C150.34 37.5948 150.184 37.7828 150.08 38.0068V40.3828C150.184 40.6068 150.34 40.7988 150.548 40.9588C150.764 41.1108 150.984 41.1868 151.208 41.1868ZM158.386 36.3028V37.3468H155.986V42.0988H154.786V36.3028H158.386ZM159.106 44.3668L159.286 43.3108C159.39 43.3668 159.518 43.3948 159.67 43.3948C159.99 43.3948 160.21 43.2348 160.33 42.9148L160.57 42.2188L158.626 36.3028H159.898L161.182 40.6588L162.478 36.3028H163.75L161.458 43.1908C161.306 43.6548 161.09 43.9788 160.81 44.1628C160.538 44.3548 160.186 44.4508 159.754 44.4508C159.506 44.4508 159.29 44.4228 159.106 44.3668ZM166.482 42.0988H165.282V37.3468H163.974V36.3028H167.79V37.3468H166.482V42.0988Z" fill="#444444"/>
<circle cx="130.5" cy="77.4963" r="4" fill="#444444"/>
<path d="M113 94.4963H111.46V86.5163H109.318V85.1583H115.142V86.5163H113V94.4963ZM120.927 94.6643C120.096 94.6643 119.424 94.3796 118.911 93.8103C118.398 93.2316 118.099 92.499 118.015 91.6123H116.937V94.4963H115.537V87.7343H116.937V90.3943H118.043C118.164 89.5636 118.472 88.887 118.967 88.3643C119.471 87.8323 120.124 87.5663 120.927 87.5663C121.851 87.5663 122.57 87.907 123.083 88.5883C123.596 89.2603 123.853 90.1003 123.853 91.1083C123.853 92.1163 123.596 92.961 123.083 93.6423C122.57 94.3236 121.851 94.6643 120.927 94.6643ZM119.821 92.7743C120.073 93.213 120.442 93.4323 120.927 93.4323C121.412 93.4323 121.781 93.213 122.033 92.7743C122.285 92.3263 122.411 91.771 122.411 91.1083C122.411 90.4456 122.285 89.895 122.033 89.4563C121.781 89.0176 121.412 88.7983 120.927 88.7983C120.442 88.7983 120.073 89.0176 119.821 89.4563C119.578 89.895 119.457 90.4456 119.457 91.1083C119.457 91.771 119.578 92.3263 119.821 92.7743ZM131.826 94.4963H130.454V90.0863L128.788 94.4963H128.228L126.576 90.0863V94.4963H125.176V87.7343H126.968L128.508 91.8083L130.048 87.7343H131.826V94.4963ZM136.176 94.6643C135.252 94.6643 134.515 94.3376 133.964 93.6843C133.414 93.031 133.138 92.1723 133.138 91.1083C133.138 90.1003 133.4 89.2603 133.922 88.5883C134.454 87.907 135.159 87.5663 136.036 87.5663C136.923 87.5663 137.614 87.9023 138.108 88.5743C138.603 89.2463 138.85 90.1096 138.85 91.1643V91.5703H134.552C134.58 92.149 134.748 92.6203 135.056 92.9843C135.364 93.339 135.784 93.5163 136.316 93.5163C136.923 93.5163 137.432 93.2736 137.842 92.7883L138.514 93.6283C137.908 94.319 137.128 94.6643 136.176 94.6643ZM137.492 90.5763C137.483 90.0816 137.357 89.6476 137.114 89.2743C136.881 88.8916 136.517 88.7003 136.022 88.7003C135.546 88.7003 135.187 88.8916 134.944 89.2743C134.702 89.657 134.566 90.091 134.538 90.5763H137.492ZM141.505 94.4963H140.105V87.7343H141.505V90.3943H143.857V87.7343H145.243V94.4963H143.857V91.6123H141.505V94.4963ZM146.9 87.7343H148.3V90.2123H149.798C150.536 90.2123 151.096 90.4176 151.478 90.8283C151.87 91.239 152.066 91.7523 152.066 92.3683C152.066 92.975 151.866 93.4836 151.464 93.8943C151.072 94.2956 150.517 94.4963 149.798 94.4963H146.9V87.7343ZM149.63 91.3883H148.3V93.3203H149.63C149.948 93.3203 150.195 93.2316 150.372 93.0543C150.55 92.877 150.638 92.6436 150.638 92.3543C150.638 92.0743 150.55 91.8456 150.372 91.6683C150.195 91.4816 149.948 91.3883 149.63 91.3883Z" fill="#444444"/>
<circle cx="45.3984" cy="4.09885" r="4" fill="#444444"/>
<path d="M29.4931 20.0988H28.2211V12.0948H29.5531V17.3028L32.4451 12.0948H33.7891V20.0988H32.4691V14.7468L29.4931 20.0988ZM36.0547 20.0988H34.6507L36.6067 16.9068L34.6867 14.3028H36.0787L37.6747 16.5348V14.3028H38.8747V16.5348L40.4707 14.3028H41.8627L39.9427 16.9068L41.8987 20.0988H40.4947L39.1267 17.6748L38.8747 18.0108V20.0988H37.6747V18.0108L37.4227 17.6748L36.0547 20.0988ZM44.9381 20.2428C44.1461 20.2428 43.5141 19.9628 43.0421 19.4028C42.5701 18.8428 42.3341 18.1068 42.3341 17.1948C42.3341 16.3308 42.5581 15.6108 43.0061 15.0348C43.4621 14.4508 44.0661 14.1588 44.8181 14.1588C45.5781 14.1588 46.1701 14.4468 46.5941 15.0228C47.0181 15.5988 47.2301 16.3388 47.2301 17.2428V17.5908H43.5461C43.5701 18.0868 43.7141 18.4908 43.9781 18.8028C44.2421 19.1068 44.6021 19.2588 45.0581 19.2588C45.5781 19.2588 46.0141 19.0508 46.3661 18.6348L46.9421 19.3548C46.4221 19.9468 45.7541 20.2428 44.9381 20.2428ZM46.0661 16.7388C46.0581 16.3148 45.9501 15.9428 45.7421 15.6228C45.5421 15.2948 45.2301 15.1308 44.8061 15.1308C44.3981 15.1308 44.0901 15.2948 43.8821 15.6228C43.6741 15.9508 43.5581 16.3228 43.5341 16.7388H46.0661ZM51.0537 20.0988H48.3057V14.3028H50.9817C51.5497 14.3028 51.9817 14.4428 52.2777 14.7228C52.5817 14.9948 52.7337 15.3468 52.7337 15.7788C52.7337 16.1148 52.6417 16.3988 52.4577 16.6308C52.2817 16.8548 52.0417 17.0108 51.7377 17.0988C52.0577 17.1708 52.3217 17.3428 52.5297 17.6148C52.7377 17.8788 52.8417 18.1828 52.8417 18.5268C52.8417 18.9988 52.6897 19.3788 52.3857 19.6668C52.0897 19.9548 51.6457 20.0988 51.0537 20.0988ZM50.8017 19.0908C51.3457 19.0908 51.6177 18.8508 51.6177 18.3708C51.6177 18.1628 51.5457 17.9868 51.4017 17.8428C51.2657 17.6988 51.0657 17.6268 50.8017 17.6268H49.5057V19.0908H50.8017ZM50.7537 16.6308C51.2497 16.6308 51.4977 16.4108 51.4977 15.9708C51.4977 15.7708 51.4337 15.6108 51.3057 15.4908C51.1857 15.3628 51.0017 15.2988 50.7537 15.2988H49.5057V16.6308H50.7537ZM58.1733 19.4628C57.7573 19.9828 57.1693 20.2428 56.4093 20.2428C55.6493 20.2428 55.0333 19.9588 54.5613 19.3908C54.0973 18.8148 53.8653 18.0828 53.8653 17.1948C53.8653 16.3068 54.0973 15.5788 54.5613 15.0108C55.0253 14.4428 55.6413 14.1588 56.4093 14.1588C57.1693 14.1588 57.7573 14.4188 58.1733 14.9388L57.5613 15.7548C57.2813 15.3948 56.9373 15.2148 56.5293 15.2148C56.0893 15.2148 55.7413 15.4028 55.4853 15.7788C55.2293 16.1548 55.1013 16.6268 55.1013 17.1948C55.1013 17.7708 55.2293 18.2468 55.4853 18.6228C55.7413 18.9988 56.0893 19.1868 56.5293 19.1868C56.9293 19.1868 57.2733 19.0068 57.5613 18.6468L58.1733 19.4628ZM63.8018 20.0988H62.3978L61.0298 17.6748L60.3338 18.6108V20.0988H59.1338V14.3028H60.3338V17.1468L62.3738 14.3028H63.7658L61.8458 16.9068L63.8018 20.0988Z" fill="#444444"/>
<circle cx="37.5" cy="77.4963" r="4" fill="#444444"/>
<path d="M9.82366 85.1583V87.8323C9.82366 89.0083 10.3417 89.5963 11.3777 89.5963C11.9003 89.5963 12.3483 89.5263 12.7217 89.3863V85.1583H14.2757V94.4963H12.7217V90.7583C12.1803 90.8983 11.667 90.9683 11.1817 90.9683C10.2203 90.9683 9.49232 90.6836 8.99766 90.1143C8.51232 89.5356 8.26966 88.775 8.26966 87.8323V85.1583H9.82366ZM18.6999 94.6643C17.7759 94.6643 17.0385 94.3376 16.4879 93.6843C15.9372 93.031 15.6619 92.1723 15.6619 91.1083C15.6619 90.1003 15.9232 89.2603 16.4459 88.5883C16.9779 87.907 17.6825 87.5663 18.5599 87.5663C19.4465 87.5663 20.1372 87.9023 20.6319 88.5743C21.1265 89.2463 21.3739 90.1096 21.3739 91.1643V91.5703H17.0759C17.1039 92.149 17.2719 92.6203 17.5799 92.9843C17.8879 93.339 18.3079 93.5163 18.8399 93.5163C19.4465 93.5163 19.9552 93.2736 20.3659 92.7883L21.0379 93.6283C20.4312 94.319 19.6519 94.6643 18.6999 94.6643ZM20.0159 90.5763C20.0065 90.0816 19.8805 89.6476 19.6379 89.2743C19.4045 88.8916 19.0405 88.7003 18.5459 88.7003C18.0699 88.7003 17.7105 88.8916 17.4679 89.2743C17.2252 89.657 17.0899 90.091 17.0619 90.5763H20.0159ZM22.0547 94.6643V93.4743C22.3441 93.4743 22.5681 93.3203 22.7267 93.0123C22.8947 92.7043 23.0161 92.1256 23.0907 91.2763L23.3987 87.7343H27.7667V94.4963H26.3807V88.9523H24.6727L24.4907 91.3883C24.3974 92.583 24.1501 93.4276 23.7487 93.9223C23.3474 94.417 22.7827 94.6643 22.0547 94.6643ZM30.7677 94.4963H29.1717L30.6277 91.8363C30.245 91.7336 29.923 91.5143 29.6617 91.1783C29.4003 90.833 29.2697 90.3943 29.2697 89.8623C29.2697 89.2463 29.4703 88.7376 29.8717 88.3363C30.273 87.935 30.8283 87.7343 31.5377 87.7343H34.5197V94.4963H33.1197V92.0043H31.9997L30.7677 94.4963ZM31.7057 90.8423H33.1197V88.8963H31.7057C31.3883 88.8963 31.1363 88.985 30.9497 89.1623C30.7723 89.3396 30.6837 89.573 30.6837 89.8623C30.6837 90.1516 30.7723 90.3896 30.9497 90.5763C31.127 90.7536 31.379 90.8423 31.7057 90.8423ZM38.7536 93.4323C39.2389 93.4323 39.6076 93.2083 39.8596 92.7603C40.1116 92.303 40.2376 91.743 40.2376 91.0803C40.2376 90.4456 40.1116 89.909 39.8596 89.4703C39.6076 89.0223 39.2389 88.7983 38.7536 88.7983C38.2776 88.7983 37.9136 89.0223 37.6616 89.4703C37.4096 89.909 37.2836 90.4456 37.2836 91.0803C37.2836 91.743 37.4096 92.303 37.6616 92.7603C37.9136 93.2083 38.2776 93.4323 38.7536 93.4323ZM38.7536 94.6643C37.8202 94.6643 37.1016 94.3096 36.5976 93.6003C36.0936 92.8816 35.8416 91.9483 35.8416 90.8003C35.8416 89.0736 36.0516 87.8556 36.4716 87.1463C36.9009 86.437 37.6662 85.989 38.7676 85.8023C39.2622 85.7183 39.6029 85.6296 39.7896 85.5363C39.9856 85.443 40.0836 85.317 40.0836 85.1583H41.4696C41.4696 85.4663 41.3949 85.737 41.2456 85.9703C41.0962 86.1943 40.8862 86.3716 40.6156 86.5023C40.3542 86.633 40.1116 86.731 39.8876 86.7963C39.6636 86.8616 39.4069 86.9176 39.1176 86.9643C37.8296 87.1696 37.1296 87.725 37.0176 88.6303C37.2136 88.3036 37.4842 88.047 37.8296 87.8603C38.1749 87.6643 38.5622 87.5663 38.9916 87.5663C39.8222 87.5663 40.4756 87.907 40.9516 88.5883C41.4369 89.2696 41.6796 90.105 41.6796 91.0943C41.6796 92.093 41.4229 92.9376 40.9096 93.6283C40.3962 94.319 39.6776 94.6643 38.7536 94.6643ZM44.3988 94.4963H43.0408V87.7343H44.4408V91.9763L46.7508 87.7343H48.1788V94.4963H46.7928V90.1143L44.3988 94.4963ZM51.2358 94.4963H49.8358V87.7343H51.2358V90.3943H53.5878V87.7343H54.9738V94.4963H53.5878V91.6123H51.2358V94.4963ZM61.3207 93.7543C60.8354 94.361 60.1494 94.6643 59.2627 94.6643C58.376 94.6643 57.6574 94.333 57.1067 93.6703C56.5654 92.9983 56.2947 92.1443 56.2947 91.1083C56.2947 90.0723 56.5654 89.223 57.1067 88.5603C57.648 87.8976 58.3667 87.5663 59.2627 87.5663C60.1494 87.5663 60.8354 87.8696 61.3207 88.4763L60.6067 89.4283C60.28 89.0083 59.8787 88.7983 59.4027 88.7983C58.8894 88.7983 58.4834 89.0176 58.1847 89.4563C57.886 89.895 57.7367 90.4456 57.7367 91.1083C57.7367 91.7803 57.886 92.3356 58.1847 92.7743C58.4834 93.213 58.8894 93.4323 59.4027 93.4323C59.8694 93.4323 60.2707 93.2223 60.6067 92.8023L61.3207 93.7543ZM67.8872 94.4963H66.2492L64.6532 91.6683L63.8412 92.7603V94.4963H62.4412V87.7343H63.8412V91.0523L66.2212 87.7343H67.8452L65.6052 90.7723L67.8872 94.4963Z" fill="#444444"/>
</svg>
