<svg width="118" height="132" viewBox="0 0 118 132" fill="none" xmlns="http://www.w3.org/2000/svg">
<circle cx="93.6719" cy="43.0989" r="4" fill="#444444"/>
<path d="M83.4063 59.0989H81.8343L79.7703 55.7989L79.1703 56.7109V59.0989H77.8383V51.0949H79.1703V54.9469L81.6543 51.0949H83.2143L80.5983 54.8749L83.4063 59.0989ZM88.2944 59.0989H87.1064V58.5109C86.7544 58.9989 86.2464 59.2429 85.5824 59.2429C85.0864 59.2429 84.6664 59.0709 84.3224 58.7269C83.9784 58.3749 83.8064 57.9029 83.8064 57.3109C83.8064 56.7189 83.9784 56.2589 84.3224 55.9309C84.6664 55.5949 85.0864 55.4269 85.5824 55.4269C86.2624 55.4269 86.7704 55.6589 87.1064 56.1229V55.2829C87.1064 54.9309 87.0064 54.6589 86.8064 54.4669C86.6144 54.2749 86.3384 54.1789 85.9784 54.1789C85.4504 54.1789 84.9704 54.3989 84.5384 54.8389L84.0704 53.9989C84.6304 53.4389 85.3384 53.1589 86.1944 53.1589C86.8344 53.1589 87.3424 53.3229 87.7184 53.6509C88.1024 53.9709 88.2944 54.4669 88.2944 55.1389V59.0989ZM86.0144 58.4149C86.4944 58.4149 86.8584 58.2029 87.1064 57.7789V56.9029C86.9944 56.7029 86.8384 56.5469 86.6384 56.4349C86.4384 56.3149 86.2304 56.2549 86.0144 56.2549C85.7104 56.2549 85.4664 56.3549 85.2824 56.5549C85.0984 56.7549 85.0064 57.0149 85.0064 57.3349C85.0064 57.6549 85.0984 57.9149 85.2824 58.1149C85.4664 58.3149 85.7104 58.4149 86.0144 58.4149ZM91.496 59.2429C90.504 59.2429 89.744 58.9309 89.216 58.3069L89.804 57.5749C90.22 58.0389 90.776 58.2709 91.472 58.2709C91.832 58.2709 92.112 58.1949 92.312 58.0429C92.52 57.8909 92.624 57.6869 92.624 57.4309C92.624 56.9109 92.22 56.6509 91.412 56.6509H90.332V55.6909H91.388C91.748 55.6909 92.028 55.6229 92.228 55.4869C92.436 55.3429 92.54 55.1429 92.54 54.8869C92.54 54.6549 92.432 54.4709 92.216 54.3349C92.008 54.1989 91.732 54.1309 91.388 54.1309C90.756 54.1309 90.26 54.3549 89.9 54.8029L89.288 54.0829C89.816 53.4669 90.504 53.1589 91.352 53.1589C92.08 53.1589 92.66 53.2989 93.092 53.5789C93.524 53.8589 93.74 54.2429 93.74 54.7309C93.74 55.0749 93.608 55.3789 93.344 55.6429C93.088 55.8989 92.78 56.0629 92.42 56.1349C92.796 56.1749 93.124 56.3189 93.404 56.5669C93.692 56.8149 93.836 57.1349 93.836 57.5269C93.836 58.0309 93.624 58.4429 93.2 58.7629C92.784 59.0829 92.216 59.2429 91.496 59.2429ZM99.1343 59.0989H97.9463V58.5109C97.5943 58.9989 97.0863 59.2429 96.4223 59.2429C95.9263 59.2429 95.5063 59.0709 95.1623 58.7269C94.8183 58.3749 94.6463 57.9029 94.6463 57.3109C94.6463 56.7189 94.8183 56.2589 95.1623 55.9309C95.5063 55.5949 95.9263 55.4269 96.4223 55.4269C97.1023 55.4269 97.6103 55.6589 97.9463 56.1229V55.2829C97.9463 54.9309 97.8463 54.6589 97.6463 54.4669C97.4543 54.2749 97.1783 54.1789 96.8183 54.1789C96.2903 54.1789 95.8103 54.3989 95.3783 54.8389L94.9103 53.9989C95.4703 53.4389 96.1783 53.1589 97.0343 53.1589C97.6743 53.1589 98.1823 53.3229 98.5583 53.6509C98.9423 53.9709 99.1343 54.4669 99.1343 55.1389V59.0989ZM96.8543 58.4149C97.3343 58.4149 97.6983 58.2029 97.9463 57.7789V56.9029C97.8343 56.7029 97.6783 56.5469 97.4783 56.4349C97.2783 56.3149 97.0703 56.2549 96.8543 56.2549C96.5503 56.2549 96.3063 56.3549 96.1223 56.5549C95.9383 56.7549 95.8463 57.0149 95.8463 57.3349C95.8463 57.6549 95.9383 57.9149 96.1223 58.1149C96.3063 58.3149 96.5503 58.4149 96.8543 58.4149ZM101.748 59.0989H100.548V53.3029H101.748V55.5829H103.764V53.3029H104.952V59.0989H103.764V56.6269H101.748V59.0989ZM106.372 53.3029H107.572V55.4269H108.856C109.488 55.4269 109.968 55.6029 110.296 55.9549C110.632 56.3069 110.8 56.7469 110.8 57.2749C110.8 57.7949 110.628 58.2309 110.284 58.5829C109.948 58.9269 109.472 59.0989 108.856 59.0989H106.372V53.3029ZM108.712 56.4349H107.572V58.0909H108.712C108.984 58.0909 109.196 58.0149 109.348 57.8629C109.5 57.7109 109.576 57.5109 109.576 57.2629C109.576 57.0229 109.5 56.8269 109.348 56.6749C109.196 56.5149 108.984 56.4349 108.712 56.4349Z" fill="#444444"/>
<circle cx="31.5" cy="51.0989" r="4" fill="#444444"/>
<path d="M17.3453 67.2429C16.3533 67.2429 15.5613 66.8589 14.9693 66.0909C14.3773 65.3149 14.0813 64.3189 14.0813 63.1029C14.0813 61.8789 14.3773 60.8829 14.9693 60.1149C15.5613 59.3469 16.3533 58.9629 17.3453 58.9629C18.4733 58.9629 19.3173 59.5509 19.8773 60.7269L18.7733 61.2189C18.4613 60.4989 17.9853 60.1389 17.3453 60.1389C16.7693 60.1389 16.3053 60.4149 15.9533 60.9669C15.6093 61.5189 15.4373 62.2309 15.4373 63.1029C15.4373 63.9669 15.6093 64.6749 15.9533 65.2269C16.3053 65.7789 16.7693 66.0549 17.3453 66.0549C17.6813 66.0549 17.9693 65.9469 18.2093 65.7309C18.4573 65.5149 18.6493 65.2309 18.7853 64.8789L19.8893 65.3709C19.3453 66.6189 18.4973 67.2429 17.3453 67.2429ZM25.0718 67.0989H23.8838V66.5109C23.5318 66.9989 23.0238 67.2429 22.3598 67.2429C21.8638 67.2429 21.4438 67.0709 21.0998 66.7269C20.7558 66.3749 20.5838 65.9029 20.5838 65.3109C20.5838 64.7189 20.7558 64.2589 21.0998 63.9309C21.4438 63.5949 21.8638 63.4269 22.3598 63.4269C23.0398 63.4269 23.5478 63.6589 23.8838 64.1229V63.2829C23.8838 62.9309 23.7838 62.6589 23.5838 62.4669C23.3918 62.2749 23.1158 62.1789 22.7558 62.1789C22.2278 62.1789 21.7478 62.3989 21.3158 62.8389L20.8478 61.9989C21.4078 61.4389 22.1158 61.1589 22.9718 61.1589C23.6118 61.1589 24.1198 61.3229 24.4958 61.6509C24.8798 61.9709 25.0718 62.4669 25.0718 63.1389V67.0989ZM22.7918 66.4149C23.2718 66.4149 23.6358 66.2029 23.8838 65.7789V64.9029C23.7718 64.7029 23.6158 64.5469 23.4158 64.4349C23.2158 64.3149 23.0078 64.2549 22.7918 64.2549C22.4878 64.2549 22.2438 64.3549 22.0598 64.5549C21.8758 64.7549 21.7838 65.0149 21.7838 65.3349C21.7838 65.6549 21.8758 65.9149 22.0598 66.1149C22.2438 66.3149 22.4878 66.4149 22.7918 66.4149ZM32.1853 67.0989H31.0093V63.3189L29.5813 67.0989H29.1013L27.6853 63.3189V67.0989H26.4853V61.3029H28.0213L29.3413 64.7949L30.6613 61.3029H32.1853V67.0989ZM37.7866 67.0989H36.5986V66.5109C36.2466 66.9989 35.7386 67.2429 35.0746 67.2429C34.5786 67.2429 34.1586 67.0709 33.8146 66.7269C33.4706 66.3749 33.2986 65.9029 33.2986 65.3109C33.2986 64.7189 33.4706 64.2589 33.8146 63.9309C34.1586 63.5949 34.5786 63.4269 35.0746 63.4269C35.7546 63.4269 36.2626 63.6589 36.5986 64.1229V63.2829C36.5986 62.9309 36.4986 62.6589 36.2986 62.4669C36.1066 62.2749 35.8306 62.1789 35.4706 62.1789C34.9426 62.1789 34.4626 62.3989 34.0306 62.8389L33.5626 61.9989C34.1226 61.4389 34.8306 61.1589 35.6866 61.1589C36.3266 61.1589 36.8346 61.3229 37.2106 61.6509C37.5946 61.9709 37.7866 62.4669 37.7866 63.1389V67.0989ZM35.5066 66.4149C35.9866 66.4149 36.3506 66.2029 36.5986 65.7789V64.9029C36.4866 64.7029 36.3306 64.5469 36.1306 64.4349C35.9306 64.3149 35.7226 64.2549 35.5066 64.2549C35.2026 64.2549 34.9586 64.3549 34.7746 64.5549C34.5906 64.7549 34.4986 65.0149 34.4986 65.3349C34.4986 65.6549 34.5906 65.9149 34.7746 66.1149C34.9586 66.3149 35.2026 66.4149 35.5066 66.4149ZM43.4242 66.4149C43.0482 66.9669 42.5362 67.2429 41.8882 67.2429C41.2402 67.2429 40.7442 66.9349 40.4002 66.3189V69.3069H39.2002V61.3029H40.4002V62.0709C40.5682 61.7829 40.7842 61.5589 41.0482 61.3989C41.3122 61.2389 41.5922 61.1589 41.8882 61.1589C42.5442 61.1589 43.0602 61.4309 43.4362 61.9749C43.8122 62.5189 44.0002 63.2589 44.0002 64.1949C44.0002 65.1229 43.8082 65.8629 43.4242 66.4149ZM41.5282 66.1869C41.9282 66.1869 42.2322 66.0029 42.4402 65.6349C42.6562 65.2589 42.7642 64.7789 42.7642 64.1949C42.7642 63.6109 42.6562 63.1349 42.4402 62.7669C42.2322 62.3989 41.9282 62.2149 41.5282 62.2149C41.3042 62.2149 41.0842 62.2909 40.8682 62.4429C40.6602 62.5949 40.5042 62.7829 40.4002 63.0069V65.3829C40.5042 65.6069 40.6602 65.7989 40.8682 65.9589C41.0842 66.1109 41.3042 66.1869 41.5282 66.1869ZM49.2944 67.0989H48.1064V66.5109C47.7544 66.9989 47.2464 67.2429 46.5824 67.2429C46.0864 67.2429 45.6664 67.0709 45.3224 66.7269C44.9784 66.3749 44.8064 65.9029 44.8064 65.3109C44.8064 64.7189 44.9784 64.2589 45.3224 63.9309C45.6664 63.5949 46.0864 63.4269 46.5824 63.4269C47.2624 63.4269 47.7704 63.6589 48.1064 64.1229V63.2829C48.1064 62.9309 48.0064 62.6589 47.8064 62.4669C47.6144 62.2749 47.3384 62.1789 46.9784 62.1789C46.4504 62.1789 45.9704 62.3989 45.5384 62.8389L45.0704 61.9989C45.6304 61.4389 46.3384 61.1589 47.1944 61.1589C47.8344 61.1589 48.3424 61.3229 48.7184 61.6509C49.1024 61.9709 49.2944 62.4669 49.2944 63.1389V67.0989ZM47.0144 66.4149C47.4944 66.4149 47.8584 66.2029 48.1064 65.7789V64.9029C47.9944 64.7029 47.8384 64.5469 47.6384 64.4349C47.4384 64.3149 47.2304 64.2549 47.0144 64.2549C46.7104 64.2549 46.4664 64.3549 46.2824 64.5549C46.0984 64.7549 46.0064 65.0149 46.0064 65.3349C46.0064 65.6549 46.0984 65.9149 46.2824 66.1149C46.4664 66.3149 46.7104 66.4149 47.0144 66.4149Z" fill="#444444"/>
<circle cx="36.1719" cy="4.96069" r="4" fill="#444444"/>
<path d="M13.0827 20.9607H11.7507V17.4327H8.82266V20.9607H7.49066V12.9567H8.82266V16.2567H11.7507V12.9567H13.0827V20.9607ZM15.2879 21.0927C15.0719 21.0927 14.8839 21.0127 14.7239 20.8527C14.5639 20.6927 14.4839 20.5007 14.4839 20.2767C14.4839 20.0607 14.5639 19.8727 14.7239 19.7127C14.8839 19.5527 15.0719 19.4727 15.2879 19.4727C15.5119 19.4727 15.6999 19.5527 15.8519 19.7127C16.0119 19.8727 16.0919 20.0607 16.0919 20.2767C16.0919 20.5007 16.0119 20.6927 15.8519 20.8527C15.6999 21.0127 15.5119 21.0927 15.2879 21.0927ZM25.6452 20.9607H24.3132V17.4327H21.3852V20.9607H20.0532V12.9567H21.3852V16.2567H24.3132V12.9567H25.6452V20.9607ZM31.1624 20.2287C30.7224 20.8127 30.1104 21.1047 29.3264 21.1047C28.5424 21.1047 27.9264 20.8127 27.4784 20.2287C27.0384 19.6447 26.8184 18.9207 26.8184 18.0567C26.8184 17.1927 27.0384 16.4727 27.4784 15.8967C27.9184 15.3127 28.5344 15.0207 29.3264 15.0207C30.1184 15.0207 30.7344 15.3127 31.1744 15.8967C31.6144 16.4727 31.8344 17.1927 31.8344 18.0567C31.8344 18.9207 31.6104 19.6447 31.1624 20.2287ZM28.3784 19.4727C28.5944 19.8567 28.9104 20.0487 29.3264 20.0487C29.7424 20.0487 30.0584 19.8567 30.2744 19.4727C30.4904 19.0887 30.5984 18.6167 30.5984 18.0567C30.5984 17.4967 30.4904 17.0287 30.2744 16.6527C30.0584 16.2687 29.7424 16.0767 29.3264 16.0767C28.9104 16.0767 28.5944 16.2687 28.3784 16.6527C28.1624 17.0287 28.0544 17.4967 28.0544 18.0567C28.0544 18.6167 28.1624 19.0887 28.3784 19.4727ZM35.7138 20.9607H32.9658V15.1647H35.6418C36.2098 15.1647 36.6418 15.3047 36.9378 15.5847C37.2418 15.8567 37.3938 16.2087 37.3938 16.6407C37.3938 16.9767 37.3018 17.2607 37.1178 17.4927C36.9418 17.7167 36.7018 17.8727 36.3978 17.9607C36.7178 18.0327 36.9818 18.2047 37.1898 18.4767C37.3978 18.7407 37.5018 19.0447 37.5018 19.3887C37.5018 19.8607 37.3498 20.2407 37.0458 20.5287C36.7498 20.8167 36.3058 20.9607 35.7138 20.9607ZM35.4618 19.9527C36.0058 19.9527 36.2778 19.7127 36.2778 19.2327C36.2778 19.0247 36.2058 18.8487 36.0618 18.7047C35.9258 18.5607 35.7258 18.4887 35.4618 18.4887H34.1658V19.9527H35.4618ZM35.4138 17.4927C35.9098 17.4927 36.1578 17.2727 36.1578 16.8327C36.1578 16.6327 36.0938 16.4727 35.9658 16.3527C35.8458 16.2247 35.6618 16.1607 35.4138 16.1607H34.1658V17.4927H35.4138ZM42.4135 15.1647V16.2087H40.0135V20.9607H38.8135V15.1647H42.4135ZM47.3929 20.2287C46.9529 20.8127 46.3409 21.1047 45.5569 21.1047C44.7729 21.1047 44.1569 20.8127 43.7089 20.2287C43.2689 19.6447 43.0489 18.9207 43.0489 18.0567C43.0489 17.1927 43.2689 16.4727 43.7089 15.8967C44.1489 15.3127 44.7649 15.0207 45.5569 15.0207C46.3489 15.0207 46.9649 15.3127 47.4049 15.8967C47.8449 16.4727 48.0649 17.1927 48.0649 18.0567C48.0649 18.9207 47.8409 19.6447 47.3929 20.2287ZM44.6089 19.4727C44.8249 19.8567 45.1409 20.0487 45.5569 20.0487C45.9729 20.0487 46.2889 19.8567 46.5049 19.4727C46.7209 19.0887 46.8289 18.6167 46.8289 18.0567C46.8289 17.4967 46.7209 17.0287 46.5049 16.6527C46.2889 16.2687 45.9729 16.0767 45.5569 16.0767C45.1409 16.0767 44.8249 16.2687 44.6089 16.6527C44.3929 17.0287 44.2849 17.4967 44.2849 18.0567C44.2849 18.6167 44.3929 19.0887 44.6089 19.4727ZM53.4203 20.2767C53.0443 20.8287 52.5323 21.1047 51.8843 21.1047C51.2363 21.1047 50.7403 20.7967 50.3963 20.1807V23.1687H49.1963V15.1647H50.3963V15.9327C50.5643 15.6447 50.7803 15.4207 51.0443 15.2607C51.3083 15.1007 51.5883 15.0207 51.8843 15.0207C52.5403 15.0207 53.0563 15.2927 53.4323 15.8367C53.8083 16.3807 53.9963 17.1207 53.9963 18.0567C53.9963 18.9847 53.8043 19.7247 53.4203 20.2767ZM51.5243 20.0487C51.9243 20.0487 52.2283 19.8647 52.4363 19.4967C52.6523 19.1207 52.7603 18.6407 52.7603 18.0567C52.7603 17.4727 52.6523 16.9967 52.4363 16.6287C52.2283 16.2607 51.9243 16.0767 51.5243 16.0767C51.3003 16.0767 51.0803 16.1527 50.8643 16.3047C50.6563 16.4567 50.5003 16.6447 50.3963 16.8687V19.2447C50.5003 19.4687 50.6563 19.6607 50.8643 19.8207C51.0803 19.9727 51.3003 20.0487 51.5243 20.0487ZM59.1585 20.2287C58.7185 20.8127 58.1065 21.1047 57.3225 21.1047C56.5385 21.1047 55.9225 20.8127 55.4745 20.2287C55.0345 19.6447 54.8145 18.9207 54.8145 18.0567C54.8145 17.1927 55.0345 16.4727 55.4745 15.8967C55.9145 15.3127 56.5305 15.0207 57.3225 15.0207C58.1145 15.0207 58.7305 15.3127 59.1705 15.8967C59.6105 16.4727 59.8305 17.1927 59.8305 18.0567C59.8305 18.9207 59.6065 19.6447 59.1585 20.2287ZM56.3745 19.4727C56.5905 19.8567 56.9065 20.0487 57.3225 20.0487C57.7385 20.0487 58.0545 19.8567 58.2705 19.4727C58.4865 19.0887 58.5945 18.6167 58.5945 18.0567C58.5945 17.4967 58.4865 17.0287 58.2705 16.6527C58.0545 16.2687 57.7385 16.0767 57.3225 16.0767C56.9065 16.0767 56.5905 16.2687 56.3745 16.6527C56.1585 17.0287 56.0505 17.4967 56.0505 18.0567C56.0505 18.6167 56.1585 19.0887 56.3745 19.4727ZM60.4699 22.4367V20.0127C60.7419 19.9567 60.9419 19.8167 61.0699 19.5927C61.1979 19.3687 61.2939 18.9047 61.3579 18.2007L61.6219 15.1647H65.3659V19.9167H65.9899V22.4367H64.7899V20.9607H61.6579V22.4367H60.4699ZM62.7139 16.2087L62.5579 18.2967C62.5019 19.0167 62.2859 19.5567 61.9099 19.9167H64.1779V16.2087H62.7139Z" fill="#444444"/>
<circle cx="63.6719" cy="109.496" r="4" fill="#444444"/>
<path d="M46.9534 124.476C46.3854 125.252 45.6054 125.64 44.6134 125.64C43.6214 125.64 42.8374 125.252 42.2614 124.476C41.6934 123.7 41.4094 122.708 41.4094 121.5C41.4094 120.292 41.6934 119.3 42.2614 118.524C42.8374 117.748 43.6214 117.36 44.6134 117.36C45.6054 117.36 46.3854 117.748 46.9534 118.524C47.5294 119.3 47.8174 120.292 47.8174 121.5C47.8174 122.708 47.5294 123.7 46.9534 124.476ZM44.6134 124.452C45.1894 124.452 45.6414 124.176 45.9694 123.624C46.2974 123.064 46.4614 122.356 46.4614 121.5C46.4614 120.636 46.2974 119.928 45.9694 119.376C45.6414 118.816 45.1894 118.536 44.6134 118.536C44.0294 118.536 43.5734 118.812 43.2454 119.364C42.9254 119.916 42.7654 120.628 42.7654 121.5C42.7654 122.364 42.9254 123.072 43.2454 123.624C43.5734 124.176 44.0294 124.452 44.6134 124.452ZM53.2211 124.812C52.8451 125.364 52.3331 125.64 51.6851 125.64C51.0371 125.64 50.5411 125.332 50.1971 124.716V127.704H48.9971V119.7H50.1971V120.468C50.3651 120.18 50.5811 119.956 50.8451 119.796C51.1091 119.636 51.3891 119.556 51.6851 119.556C52.3411 119.556 52.8571 119.828 53.2331 120.372C53.6091 120.916 53.7971 121.656 53.7971 122.592C53.7971 123.52 53.6051 124.26 53.2211 124.812ZM51.3251 124.584C51.7251 124.584 52.0291 124.4 52.2371 124.032C52.4531 123.656 52.5611 123.176 52.5611 122.592C52.5611 122.008 52.4531 121.532 52.2371 121.164C52.0291 120.796 51.7251 120.612 51.3251 120.612C51.1011 120.612 50.8811 120.688 50.6651 120.84C50.4571 120.992 50.3011 121.18 50.1971 121.404V123.78C50.3011 124.004 50.4571 124.196 50.6651 124.356C50.8811 124.508 51.1011 124.584 51.3251 124.584ZM57.2193 125.64C56.4273 125.64 55.7953 125.36 55.3233 124.8C54.8513 124.24 54.6153 123.504 54.6153 122.592C54.6153 121.728 54.8393 121.008 55.2873 120.432C55.7433 119.848 56.3473 119.556 57.0993 119.556C57.8593 119.556 58.4513 119.844 58.8753 120.42C59.2993 120.996 59.5113 121.736 59.5113 122.64V122.988H55.8273C55.8513 123.484 55.9953 123.888 56.2593 124.2C56.5233 124.504 56.8833 124.656 57.3393 124.656C57.8593 124.656 58.2953 124.448 58.6473 124.032L59.2233 124.752C58.7033 125.344 58.0353 125.64 57.2193 125.64ZM58.3473 122.136C58.3393 121.712 58.2313 121.34 58.0233 121.02C57.8233 120.692 57.5113 120.528 57.0873 120.528C56.6793 120.528 56.3713 120.692 56.1633 121.02C55.9553 121.348 55.8393 121.72 55.8153 122.136H58.3473ZM61.7869 125.496H60.5869V119.7H61.7869V121.98H63.8029V119.7H64.9909V125.496H63.8029V123.024H61.7869V125.496ZM68.6191 124.584C69.0351 124.584 69.3511 124.392 69.5671 124.008C69.7831 123.616 69.8911 123.136 69.8911 122.568C69.8911 122.024 69.7831 121.564 69.5671 121.188C69.3511 120.804 69.0351 120.612 68.6191 120.612C68.2111 120.612 67.8991 120.804 67.6831 121.188C67.4671 121.564 67.3591 122.024 67.3591 122.568C67.3591 123.136 67.4671 123.616 67.6831 124.008C67.8991 124.392 68.2111 124.584 68.6191 124.584ZM68.6191 125.64C67.8191 125.64 67.2031 125.336 66.7711 124.728C66.3391 124.112 66.1231 123.312 66.1231 122.328C66.1231 120.848 66.3031 119.804 66.6631 119.196C67.0311 118.588 67.6871 118.204 68.6311 118.044C69.0551 117.972 69.3471 117.896 69.5071 117.816C69.6751 117.736 69.7591 117.628 69.7591 117.492H70.9471C70.9471 117.756 70.8831 117.988 70.7551 118.188C70.6271 118.38 70.4471 118.532 70.2151 118.644C69.9911 118.756 69.7831 118.84 69.5911 118.896C69.3991 118.952 69.1791 119 68.9311 119.04C67.8271 119.216 67.2271 119.692 67.1311 120.468C67.2991 120.188 67.5311 119.968 67.8271 119.808C68.1231 119.64 68.4551 119.556 68.8231 119.556C69.5351 119.556 70.0951 119.848 70.5031 120.432C70.9191 121.016 71.1271 121.732 71.1271 122.58C71.1271 123.436 70.9071 124.16 70.4671 124.752C70.0271 125.344 69.4111 125.64 68.6191 125.64ZM72.0899 127.764L72.2699 126.708C72.3739 126.764 72.5019 126.792 72.6539 126.792C72.9739 126.792 73.1939 126.632 73.3139 126.312L73.5539 125.616L71.6099 119.7H72.8819L74.1659 124.056L75.4619 119.7H76.7339L74.4419 126.588C74.2899 127.052 74.0739 127.376 73.7939 127.56C73.5219 127.752 73.1699 127.848 72.7379 127.848C72.4899 127.848 72.2739 127.82 72.0899 127.764ZM81.6742 124.812C81.2982 125.364 80.7862 125.64 80.1382 125.64C79.4902 125.64 78.9942 125.332 78.6502 124.716V127.704H77.4502V119.7H78.6502V120.468C78.8182 120.18 79.0342 119.956 79.2982 119.796C79.5622 119.636 79.8422 119.556 80.1382 119.556C80.7942 119.556 81.3102 119.828 81.6862 120.372C82.0622 120.916 82.2502 121.656 82.2502 122.592C82.2502 123.52 82.0582 124.26 81.6742 124.812ZM79.7782 124.584C80.1782 124.584 80.4822 124.4 80.6902 124.032C80.9062 123.656 81.0142 123.176 81.0142 122.592C81.0142 122.008 80.9062 121.532 80.6902 121.164C80.4822 120.796 80.1782 120.612 79.7782 120.612C79.5542 120.612 79.3342 120.688 79.1182 120.84C78.9102 120.992 78.7542 121.18 78.6502 121.404V123.78C78.7542 124.004 78.9102 124.196 79.1182 124.356C79.3342 124.508 79.5542 124.584 79.7782 124.584ZM86.9564 119.7V120.744H84.5564V125.496H83.3564V119.7H86.9564Z" fill="#444444"/>
<circle cx="97.6719" cy="81.0989" r="4" fill="#444444"/>
<path d="M89.5963 97.2429C89.0283 97.2429 88.5643 97.0909 88.2043 96.7869L88.6123 95.6949C88.8683 95.9269 89.1563 96.0429 89.4763 96.0429C89.7003 96.0429 89.8843 95.9829 90.0283 95.8629C90.1723 95.7429 90.3083 95.5469 90.4363 95.2749L90.5683 94.8909L88.1442 89.0949H89.6203L91.2883 93.3429L92.9563 89.0949H94.4203L91.6363 95.8029C91.4283 96.2989 91.1643 96.6629 90.8443 96.8949C90.5243 97.1269 90.1083 97.2429 89.5963 97.2429ZM96.3342 91.1589C96.8862 91.1589 97.3222 91.4629 97.6422 92.0709V89.0949H98.8422V92.0709C99.1622 91.4629 99.5982 91.1589 100.15 91.1589C100.726 91.1589 101.178 91.4309 101.506 91.9749C101.842 92.5189 102.01 93.2589 102.01 94.1949C102.01 95.1229 101.842 95.8629 101.506 96.4149C101.178 96.9669 100.726 97.2429 100.15 97.2429C99.5902 97.2429 99.1542 96.9349 98.8422 96.3189V99.3069H97.6422V96.3189C97.4982 96.6149 97.3102 96.8429 97.0782 97.0029C96.8462 97.1629 96.5982 97.2429 96.3342 97.2429C95.7582 97.2429 95.3022 96.9709 94.9662 96.4269C94.6382 95.8749 94.4742 95.1309 94.4742 94.1949C94.4742 93.2589 94.6382 92.5189 94.9662 91.9749C95.3022 91.4309 95.7582 91.1589 96.3342 91.1589ZM96.7182 92.2149C96.3902 92.2149 96.1382 92.3989 95.9622 92.7669C95.7862 93.1349 95.6982 93.6109 95.6982 94.1949C95.6982 94.7709 95.7902 95.2469 95.9742 95.6229C96.1582 95.9989 96.4142 96.1869 96.7422 96.1869C96.9182 96.1869 97.0902 96.1109 97.2582 95.9589C97.4262 95.7989 97.5542 95.6069 97.6422 95.3829V93.0069C97.5542 92.7829 97.4222 92.5949 97.2462 92.4429C97.0782 92.2909 96.9022 92.2149 96.7182 92.2149ZM99.7422 96.1869C100.07 96.1869 100.326 95.9989 100.51 95.6229C100.694 95.2469 100.786 94.7709 100.786 94.1949C100.786 93.6109 100.698 93.1349 100.522 92.7669C100.346 92.3989 100.094 92.2149 99.7662 92.2149C99.5822 92.2149 99.4022 92.2909 99.2262 92.4429C99.0582 92.5949 98.9302 92.7829 98.8422 93.0069V95.3829C98.9302 95.6069 99.0582 95.7989 99.2262 95.9589C99.3942 96.1109 99.5662 96.1869 99.7422 96.1869ZM107.466 97.0989H106.278V96.5109C105.926 96.9989 105.418 97.2429 104.754 97.2429C104.258 97.2429 103.838 97.0709 103.494 96.7269C103.15 96.3749 102.978 95.9029 102.978 95.3109C102.978 94.7189 103.15 94.2589 103.494 93.9309C103.838 93.5949 104.258 93.4269 104.754 93.4269C105.434 93.4269 105.942 93.6589 106.278 94.1229V93.2829C106.278 92.9309 106.178 92.6589 105.978 92.4669C105.786 92.2749 105.51 92.1789 105.15 92.1789C104.622 92.1789 104.142 92.3989 103.71 92.8389L103.242 91.9989C103.802 91.4389 104.51 91.1589 105.366 91.1589C106.006 91.1589 106.514 91.3229 106.89 91.6509C107.274 91.9709 107.466 92.4669 107.466 93.1389V97.0989ZM105.186 96.4149C105.666 96.4149 106.03 96.2029 106.278 95.7789V94.9029C106.166 94.7029 106.01 94.5469 105.81 94.4349C105.61 94.3149 105.402 94.2549 105.186 94.2549C104.882 94.2549 104.638 94.3549 104.454 94.5549C104.27 94.7549 104.178 95.0149 104.178 95.3349C104.178 95.6549 104.27 95.9149 104.454 96.1149C104.638 96.3149 104.882 96.4149 105.186 96.4149Z" fill="#444444"/>
</svg>
